<svg version="1.1" viewBox="0.0 0.0 960.0 540.0" fill="none" stroke="none" stroke-linecap="square" stroke-miterlimit="10" xmlns:xlink="http://www.w3.org/1999/xlink" xmlns="http://www.w3.org/2000/svg"><clipPath id="p.0"><path d="m0 0l960.0 0l0 540.0l-960.0 0l0 -540.0z" clip-rule="nonzero"/></clipPath><g clip-path="url(#p.0)"><path fill="#000000" fill-opacity="0.0" d="m0 0l960.0 0l0 540.0l-960.0 0z" fill-rule="evenodd"/><path fill="#cfe2f3" d="m529.5318 444.6485l0 0c0 -5.4562683 4.4231567 -9.879456 9.879456 -9.879456l157.12292 0c2.6202393 0 5.1331177 1.040863 6.98584 2.8936157c1.8527832 1.8527527 2.8936768 4.365631 2.8936768 6.98584l0 39.516663c0 5.4562683 -4.423218 9.879456 -9.879517 9.879456l-157.12292 0c-5.456299 0 -9.879456 -4.4231873 -9.879456 -9.879456z" fill-rule="evenodd"/><path stroke="#434343" stroke-width="2.0" stroke-linejoin="round" stroke-linecap="butt" d="m529.5318 444.6485l0 0c0 -5.4562683 4.4231567 -9.879456 9.879456 -9.879456l157.12292 0c2.6202393 0 5.1331177 1.040863 6.98584 2.8936157c1.8527832 1.8527527 2.8936768 4.365631 2.8936768 6.98584l0 39.516663c0 5.4562683 -4.423218 9.879456 -9.879517 9.879456l-157.12292 0c-5.456299 0 -9.879456 -4.4231873 -9.879456 -9.879456z" fill-rule="evenodd"/><path fill="#434343" d="m571.80133 463.6237l0 -2.5l2.4375 0l0 2.5l-2.4375 0zm0 6.296875l0 -2.5l2.4375 0l0 2.5l-2.4375 0zm7.4901123 1.578125q-1.25 0 -2.015625 -0.46875q-0.75 -0.484375 -1.09375 -1.375q-0.34375 -0.890625 -0.34375 -2.09375l0 -3.25q0 -1.25 0.34375 -2.125q0.34375 -0.875 1.109375 -1.34375q0.765625 -0.46875 2.0 -0.46875q1.15625 0 1.890625 0.375q0.734375 0.359375 1.0625 1.09375q0.34375 0.734375 0.34375 1.859375l0 0.890625l-2.390625 0l0 -0.953125q0 -0.5625 -0.078125 -0.890625q-0.078125 -0.328125 -0.296875 -0.453125q-0.203125 -0.140625 -0.53125 -0.140625q-0.34375 0 -0.546875 0.171875q-0.203125 0.171875 -0.296875 0.5625q-0.078125 0.390625 -0.078125 1.09375l0 3.953125q0 1.046875 0.21875 1.40625q0.234375 0.359375 0.71875 0.359375q0.375 0 0.5625 -0.15625q0.203125 -0.171875 0.265625 -0.5q0.0625 -0.328125 0.0625 -0.796875l0 -1.15625l2.390625 0l0 1.03125q0 1.078125 -0.34375 1.84375q-0.34375 0.765625 -1.078125 1.15625q-0.734375 0.375 -1.875 0.375zm8.187073 0q-1.171875 0 -1.9375 -0.4375q-0.765625 -0.4375 -1.15625 -1.28125q-0.375 -0.84375 -0.375 -2.03125l0 -3.625q0 -1.1875 0.375 -2.03125q0.390625 -0.84375 1.15625 -1.28125q0.765625 -0.4375 1.9375 -0.4375q1.171875 0 1.9375 0.4375q0.78125 0.4375 1.15625 1.28125q0.390625 0.84375 0.390625 2.03125l0 3.625q0 1.1875 -0.390625 2.03125q-0.375 0.84375 -1.15625 1.28125q-0.765625 0.4375 -1.9375 0.4375zm0.015625 -1.75q0.4375 0 0.640625 -0.25q0.203125 -0.25 0.25 -0.65625q0.0625 -0.421875 0.0625 -0.9375l0 -3.953125q0 -0.5 -0.0625 -0.90625q-0.046875 -0.40625 -0.25 -0.65625q-0.203125 -0.265625 -0.640625 -0.265625q-0.421875 0 -0.625 0.265625q-0.203125 0.25 -0.28125 0.65625q-0.0625 0.40625 -0.0625 0.90625l0 3.953125q0 0.515625 0.0625 0.9375q0.078125 0.40625 0.28125 0.65625q0.203125 0.25 0.625 0.25zm5.2698364 1.578125l0 -10.78125l2.53125 0l0 1.65625q0.5625 -0.953125 1.125 -1.359375q0.5625 -0.421875 1.21875 -0.421875q0.125 0 0.203125 0.015625q0.078125 0 0.203125 0.015625l0 2.625q-0.234375 -0.09375 -0.5 -0.15625q-0.265625 -0.0625 -0.546875 -0.0625q-0.515625 0 -0.921875 0.25q-0.40625 0.234375 -0.78125 0.796875l0 7.421875l-2.53125 0zm9.751465 0.171875q-1.21875 0 -1.984375 -0.453125q-0.75 -0.46875 -1.125 -1.34375q-0.359375 -0.890625 -0.359375 -2.140625l0 -3.25q0 -1.28125 0.359375 -2.15625q0.375 -0.890625 1.140625 -1.328125q0.78125 -0.453125 1.96875 -0.453125q1.28125 0 2.0 0.484375q0.71875 0.484375 1.03125 1.40625q0.3125 0.921875 0.3125 2.25l0 1.53125l-4.296875 0l0 2.125q0 0.53125 0.09375 0.875q0.109375 0.328125 0.328125 0.484375q0.234375 0.140625 0.546875 0.140625q0.34375 0 0.546875 -0.15625q0.203125 -0.171875 0.296875 -0.46875q0.09375 -0.3125 0.09375 -0.78125l0 -0.890625l2.375 0l0 0.71875q0 1.65625 -0.828125 2.53125q-0.828125 0.875 -2.5 0.875zm-0.953125 -6.703125l1.90625 0l0 -1.03125q0 -0.546875 -0.09375 -0.890625q-0.09375 -0.359375 -0.296875 -0.515625q-0.203125 -0.15625 -0.578125 -0.15625q-0.34375 0 -0.546875 0.171875q-0.203125 0.171875 -0.296875 0.5625q-0.09375 0.390625 -0.09375 1.109375l0 0.75zm6.2269287 -1.171875l0 -2.5l2.4375 0l0 2.5l-2.4375 0zm0 6.296875l0 -2.5l2.4375 0l0 2.5l-2.4375 0zm6.0369873 1.578125q-0.734375 0 -1.265625 -0.375q-0.53125 -0.390625 -0.8125 -0.96875q-0.28125 -0.59375 -0.28125 -1.234375q0 -1.015625 0.375 -1.703125q0.375 -0.6875 1.0 -1.15625q0.625 -0.46875 1.390625 -0.8125q0.78125 -0.34375 1.609375 -0.625l0 -0.921875q0 -0.46875 -0.078125 -0.78125q-0.0625 -0.328125 -0.25 -0.484375q-0.1875 -0.171875 -0.53125 -0.171875q-0.34375 0 -0.546875 0.15625q-0.1875 0.140625 -0.28125 0.40625q-0.078125 0.265625 -0.078125 0.625l-0.03125 0.65625l-2.421875 -0.09375q0.078125 -1.859375 0.921875 -2.75q0.859375 -0.890625 2.640625 -0.890625q1.625 0 2.359375 0.90625q0.75 0.890625 0.75 2.421875l0 4.96875q0 0.609375 0.03125 1.09375q0.03125 0.484375 0.078125 0.875q0.046875 0.390625 0.078125 0.6875l-2.296875 0q-0.046875 -0.375 -0.125 -0.84375q-0.078125 -0.484375 -0.109375 -0.703125q-0.1875 0.65625 -0.71875 1.1875q-0.515625 0.53125 -1.40625 0.53125zm0.921875 -1.890625q0.25 0 0.453125 -0.109375q0.203125 -0.125 0.375 -0.296875q0.171875 -0.171875 0.265625 -0.296875l0 -3.0q-0.4375 0.234375 -0.796875 0.484375q-0.359375 0.234375 -0.625 0.53125q-0.265625 0.28125 -0.421875 0.625q-0.140625 0.328125 -0.140625 0.78125q0 0.59375 0.234375 0.9375q0.234375 0.34375 0.65625 0.34375zm5.3966675 1.71875l0 -10.78125l2.53125 0l0 1.078125q0.578125 -0.5625 1.21875 -0.90625q0.65625 -0.34375 1.40625 -0.34375q0.671875 0 1.0625 0.328125q0.390625 0.328125 0.578125 0.875q0.1875 0.53125 0.1875 1.171875l0 8.578125l-2.546875 0l0 -8.078125q0 -0.484375 -0.15625 -0.734375q-0.140625 -0.265625 -0.5625 -0.265625q-0.265625 0 -0.578125 0.15625q-0.296875 0.140625 -0.609375 0.359375l0 8.5625l-2.53125 0zm11.264954 0.171875q-1.28125 0 -1.953125 -0.90625q-0.65625 -0.921875 -0.65625 -2.9375l0 -3.3125q0 -1.109375 0.25 -2.0q0.25 -0.90625 0.8125 -1.4375q0.5625 -0.53125 1.515625 -0.53125q0.578125 0 1.0625 0.234375q0.5 0.234375 0.90625 0.609375l0 -5.0l2.546875 0l0 15.109375l-2.546875 0l0 -0.765625q-0.421875 0.4375 -0.90625 0.6875q-0.484375 0.25 -1.03125 0.25zm0.9375 -1.75q0.203125 0 0.46875 -0.09375q0.265625 -0.09375 0.53125 -0.265625l0 -6.921875q-0.21875 -0.15625 -0.484375 -0.25q-0.25 -0.109375 -0.53125 -0.109375q-0.546875 0 -0.765625 0.5q-0.203125 0.484375 -0.203125 1.203125l0 4.03125q0 0.53125 0.0625 0.96875q0.078125 0.421875 0.296875 0.6875q0.21875 0.25 0.625 0.25zm5.527527 1.578125l0 -10.78125l2.53125 0l0 1.65625q0.5625 -0.953125 1.125 -1.359375q0.5625 -0.421875 1.21875 -0.421875q0.125 0 0.203125 0.015625q0.078125 0 0.203125 0.015625l0 2.625q-0.234375 -0.09375 -0.5 -0.15625q-0.265625 -0.0625 -0.546875 -0.0625q-0.515625 0 -0.921875 0.25q-0.40625 0.234375 -0.78125 0.796875l0 7.421875l-2.53125 0zm9.751465 0.171875q-1.171875 0 -1.9375 -0.4375q-0.765625 -0.4375 -1.15625 -1.28125q-0.375 -0.84375 -0.375 -2.03125l0 -3.625q0 -1.1875 0.375 -2.03125q0.390625 -0.84375 1.15625 -1.28125q0.765625 -0.4375 1.9375 -0.4375q1.171875 0 1.9375 0.4375q0.78125 0.4375 1.15625 1.28125q0.390625 0.84375 0.390625 2.03125l0 3.625q0 1.1875 -0.390625 2.03125q-0.375 0.84375 -1.15625 1.28125q-0.765625 0.4375 -1.9375 0.4375zm0.015625 -1.75q0.4375 0 0.640625 -0.25q0.203125 -0.25 0.25 -0.65625q0.0625 -0.421875 0.0625 -0.9375l0 -3.953125q0 -0.5 -0.0625 -0.90625q-0.046875 -0.40625 -0.25 -0.65625q-0.203125 -0.265625 -0.640625 -0.265625q-0.421875 0 -0.625 0.265625q-0.203125 0.25 -0.28125 0.65625q-0.0625 0.40625 -0.0625 0.90625l0 3.953125q0 0.515625 0.0625 0.9375q0.078125 0.40625 0.28125 0.65625q0.203125 0.25 0.625 0.25zm5.2854614 1.578125l0 -10.78125l2.53125 0l0 10.78125l-2.53125 0zm0 -12.5l0 -2.109375l2.53125 0l0 2.109375l-2.53125 0zm6.97052 12.671875q-1.28125 0 -1.953125 -0.90625q-0.65625 -0.921875 -0.65625 -2.9375l0 -3.3125q0 -1.109375 0.25 -2.0q0.25 -0.90625 0.8125 -1.4375q0.5625 -0.53125 1.515625 -0.53125q0.578125 0 1.0625 0.234375q0.5 0.234375 0.90625 0.609375l0 -5.0l2.546875 0l0 15.109375l-2.546875 0l0 -0.765625q-0.421875 0.4375 -0.90625 0.6875q-0.484375 0.25 -1.03125 0.25zm0.9375 -1.75q0.203125 0 0.46875 -0.09375q0.265625 -0.09375 0.53125 -0.265625l0 -6.921875q-0.21875 -0.15625 -0.484375 -0.25q-0.25 -0.109375 -0.53125 -0.109375q-0.546875 0 -0.765625 0.5q-0.203125 0.484375 -0.203125 1.203125l0 4.03125q0 0.53125 0.0625 0.96875q0.078125 0.421875 0.296875 0.6875q0.21875 0.25 0.625 0.25z" fill-rule="nonzero"/><path fill="#f4cccc" d="m210.7611 444.6485l0 0c0 -5.4562683 4.4231873 -9.879456 9.879471 -9.879456l157.12296 0c2.6202087 0 5.133087 1.040863 6.98584 2.8936157c1.8527527 1.8527527 2.8936157 4.365631 2.8936157 6.98584l0 39.516663c0 5.4562683 -4.4231873 9.879456 -9.879456 9.879456l-157.12296 0c-5.4562836 0 -9.879471 -4.4231873 -9.879471 -9.879456z" fill-rule="evenodd"/><path stroke="#434343" stroke-width="2.0" stroke-linejoin="round" stroke-linecap="butt" d="m210.7611 444.6485l0 0c0 -5.4562683 4.4231873 -9.879456 9.879471 -9.879456l157.12296 0c2.6202087 0 5.133087 1.040863 6.98584 2.8936157c1.8527527 1.8527527 2.8936157 4.365631 2.8936157 6.98584l0 39.516663c0 5.4562683 -4.4231873 9.879456 -9.879456 9.879456l-157.12296 0c-5.4562836 0 -9.879471 -4.4231873 -9.879471 -9.879456z" fill-rule="evenodd"/><path fill="#434343" d="m273.4406 463.6237l0 -2.5l2.4375 0l0 2.5l-2.4375 0zm0 6.296875l0 -2.5l2.4375 0l0 2.5l-2.4375 0zm7.490082 1.578125q-1.25 0 -2.015625 -0.46875q-0.75 -0.484375 -1.09375 -1.375q-0.34375 -0.890625 -0.34375 -2.09375l0 -3.25q0 -1.25 0.34375 -2.125q0.34375 -0.875 1.109375 -1.34375q0.765625 -0.46875 2.0 -0.46875q1.15625 0 1.890625 0.375q0.734375 0.359375 1.0625 1.09375q0.34375 0.734375 0.34375 1.859375l0 0.890625l-2.390625 0l0 -0.953125q0 -0.5625 -0.078125 -0.890625q-0.078125 -0.328125 -0.296875 -0.453125q-0.203125 -0.140625 -0.53125 -0.140625q-0.34375 0 -0.546875 0.171875q-0.203125 0.171875 -0.296875 0.5625q-0.078125 0.390625 -0.078125 1.09375l0 3.953125q0 1.046875 0.21875 1.40625q0.234375 0.359375 0.71875 0.359375q0.375 0 0.5625 -0.15625q0.203125 -0.171875 0.265625 -0.5q0.0625 -0.328125 0.0625 -0.796875l0 -1.15625l2.390625 0l0 1.03125q0 1.078125 -0.34375 1.84375q-0.34375 0.765625 -1.078125 1.15625q-0.734375 0.375 -1.875 0.375zm8.187042 0q-1.171875 0 -1.9375 -0.4375q-0.765625 -0.4375 -1.15625 -1.28125q-0.375 -0.84375 -0.375 -2.03125l0 -3.625q0 -1.1875 0.375 -2.03125q0.390625 -0.84375 1.15625 -1.28125q0.765625 -0.4375 1.9375 -0.4375q1.171875 0 1.9375 0.4375q0.78125 0.4375 1.15625 1.28125q0.390625 0.84375 0.390625 2.03125l0 3.625q0 1.1875 -0.390625 2.03125q-0.375 0.84375 -1.15625 1.28125q-0.765625 0.4375 -1.9375 0.4375zm0.015625 -1.75q0.4375 0 0.640625 -0.25q0.203125 -0.25 0.25 -0.65625q0.0625 -0.421875 0.0625 -0.9375l0 -3.953125q0 -0.5 -0.0625 -0.90625q-0.046875 -0.40625 -0.25 -0.65625q-0.203125 -0.265625 -0.640625 -0.265625q-0.421875 0 -0.625 0.265625q-0.203125 0.25 -0.28125 0.65625q-0.0625 0.40625 -0.0625 0.90625l0 3.953125q0 0.515625 0.0625 0.9375q0.078125 0.40625 0.28125 0.65625q0.203125 0.25 0.625 0.25zm5.269867 1.578125l0 -10.78125l2.53125 0l0 1.65625q0.5625 -0.953125 1.125 -1.359375q0.5625 -0.421875 1.21875 -0.421875q0.125 0 0.203125 0.015625q0.078125 0 0.203125 0.015625l0 2.625q-0.234375 -0.09375 -0.5 -0.15625q-0.265625 -0.0625 -0.546875 -0.0625q-0.515625 0 -0.921875 0.25q-0.40625 0.234375 -0.78125 0.796875l0 7.421875l-2.53125 0zm9.751434 0.171875q-1.21875 0 -1.984375 -0.453125q-0.75 -0.46875 -1.125 -1.34375q-0.359375 -0.890625 -0.359375 -2.140625l0 -3.25q0 -1.28125 0.359375 -2.15625q0.375 -0.890625 1.140625 -1.328125q0.78125 -0.453125 1.96875 -0.453125q1.28125 0 2.0 0.484375q0.71875 0.484375 1.03125 1.40625q0.3125 0.921875 0.3125 2.25l0 1.53125l-4.296875 0l0 2.125q0 0.53125 0.09375 0.875q0.109375 0.328125 0.328125 0.484375q0.234375 0.140625 0.546875 0.140625q0.34375 0 0.546875 -0.15625q0.203125 -0.171875 0.296875 -0.46875q0.09375 -0.3125 0.09375 -0.78125l0 -0.890625l2.375 0l0 0.71875q0 1.65625 -0.828125 2.53125q-0.828125 0.875 -2.5 0.875zm-0.953125 -6.703125l1.90625 0l0 -1.03125q0 -0.546875 -0.09375 -0.890625q-0.09375 -0.359375 -0.296875 -0.515625q-0.203125 -0.15625 -0.578125 -0.15625q-0.34375 0 -0.546875 0.171875q-0.203125 0.171875 -0.296875 0.5625q-0.09375 0.390625 -0.09375 1.109375l0 0.75zm6.226959 -1.171875l0 -2.5l2.4375 0l0 2.5l-2.4375 0zm0 6.296875l0 -2.5l2.4375 0l0 2.5l-2.4375 0zm5.974457 1.578125q-0.625 0 -1.046875 -0.328125q-0.40625 -0.328125 -0.59375 -0.875q-0.1875 -0.546875 -0.1875 -1.171875l0 -8.578125l2.546875 0l0 8.109375q0 0.484375 0.15625 0.765625q0.15625 0.265625 0.578125 0.265625q0.28125 0 0.5625 -0.140625q0.296875 -0.15625 0.578125 -0.359375l0 -8.640625l2.53125 0l0 10.78125l-2.53125 0l0 -1.03125q-0.546875 0.53125 -1.203125 0.875q-0.640625 0.328125 -1.390625 0.328125zm7.168152 -0.171875l0 -10.78125l2.53125 0l0 10.78125l-2.53125 0zm0 -12.5l0 -2.109375l2.53125 0l0 2.109375l-2.53125 0z" fill-rule="nonzero"/><path fill="#d9ead3" d="m260.49997 241.31778l0 0c0 -5.4562683 4.4231567 -9.879456 9.879456 -9.879456l157.12296 0c2.6202087 0 5.133087 1.040863 6.98584 2.893631c1.8527527 1.8527527 2.8936157 4.365631 2.8936157 6.9858246l0 39.516663c0 5.4562683 -4.4231873 9.879456 -9.879456 9.879456l-157.12296 0c-5.456299 0 -9.879456 -4.4231873 -9.879456 -9.879456z" fill-rule="evenodd"/><path stroke="#434343" stroke-width="2.0" stroke-linejoin="round" stroke-linecap="butt" d="m260.49997 241.31778l0 0c0 -5.4562683 4.4231567 -9.879456 9.879456 -9.879456l157.12296 0c2.6202087 0 5.133087 1.040863 6.98584 2.893631c1.8527527 1.8527527 2.8936157 4.365631 2.8936157 6.9858246l0 39.516663c0 5.4562683 -4.4231873 9.879456 -9.879456 9.879456l-157.12296 0c-5.456299 0 -9.879456 -4.4231873 -9.879456 -9.879456z" fill-rule="evenodd"/><path fill="#434343" d="m300.3909 260.293l0 -2.5l2.4375 0l0 2.5l-2.4375 0zm0 6.296875l0 -2.5l2.4375 0l0 2.5l-2.4375 0zm7.177582 1.578125q-1.375 0 -2.25 -0.71875q-0.875 -0.734375 -1.25 -2.140625l1.890625 -0.734375q0.21875 0.890625 0.59375 1.359375q0.375 0.453125 0.96875 0.453125q0.453125 0 0.671875 -0.21875q0.21875 -0.21875 0.21875 -0.609375q0 -0.453125 -0.265625 -0.8125q-0.265625 -0.375 -0.921875 -0.90625l-1.3125 -1.109375q-0.703125 -0.609375 -1.140625 -1.25q-0.4375 -0.640625 -0.4375 -1.625q0 -0.875 0.390625 -1.5q0.40625 -0.625 1.109375 -0.96875q0.703125 -0.34375 1.5625 -0.34375q1.34375 0 2.140625 0.78125q0.796875 0.765625 1.046875 2.015625l-1.71875 0.71875q-0.09375 -0.453125 -0.28125 -0.828125q-0.171875 -0.390625 -0.453125 -0.625q-0.265625 -0.25 -0.65625 -0.25q-0.390625 0 -0.625 0.25q-0.234375 0.234375 -0.234375 0.609375q0 0.3125 0.265625 0.65625q0.265625 0.328125 0.78125 0.765625l1.3125 1.1875q0.4375 0.375 0.828125 0.8125q0.390625 0.421875 0.640625 0.953125q0.265625 0.53125 0.265625 1.21875q0 0.9375 -0.421875 1.578125q-0.40625 0.625 -1.125 0.953125q-0.71875 0.328125 -1.59375 0.328125zm7.6656494 -0.046875q-1.03125 0 -1.625 -0.328125q-0.578125 -0.34375 -0.828125 -0.96875q-0.234375 -0.640625 -0.234375 -1.515625l0 -6.421875l-1.09375 0l0 -1.671875l1.09375 0l0 -3.2343903l2.546875 0l0 3.2343903l1.640625 0l0 1.671875l-1.640625 0l0 6.203125q0 0.5625 0.234375 0.796875q0.25 0.21875 0.734375 0.21875q0.21875 0 0.40625 -0.015625q0.203125 -0.015625 0.390625 -0.03125l0 1.9375q-0.328125 0.03125 -0.75 0.078125q-0.40625 0.046875 -0.875 0.046875zm6.281555 0.046875q-1.171875 0 -1.9375 -0.4375q-0.765625 -0.4375 -1.15625 -1.28125q-0.375 -0.84375 -0.375 -2.03125l0 -3.625q0 -1.1875 0.375 -2.03125q0.390625 -0.84375 1.15625 -1.28125q0.765625 -0.4375 1.9375 -0.4375q1.171875 0 1.9375 0.4375q0.78125 0.4375 1.15625 1.28125q0.390625 0.84375 0.390625 2.03125l0 3.625q0 1.1875 -0.390625 2.03125q-0.375 0.84375 -1.15625 1.28125q-0.765625 0.4375 -1.9375 0.4375zm0.015625 -1.75q0.4375 0 0.640625 -0.25q0.203125 -0.25 0.25 -0.65625q0.0625 -0.421875 0.0625 -0.9375l0 -3.953125q0 -0.5 -0.0625 -0.90625q-0.046875 -0.40625 -0.25 -0.65625q-0.203125 -0.265625 -0.640625 -0.265625q-0.421875 0 -0.625 0.265625q-0.203125 0.25 -0.28125 0.65625q-0.0625 0.40625 -0.0625 0.90625l0 3.953125q0 0.515625 0.0625 0.9375q0.078125 0.40625 0.28125 0.65625q0.203125 0.25 0.625 0.25zm5.269867 1.578125l0 -10.78125l2.53125 0l0 1.65625q0.5625 -0.953125 1.125 -1.359375q0.5625 -0.421875 1.21875 -0.421875q0.125 0 0.203125 0.015625q0.078125 0 0.203125 0.015625l0 2.625q-0.234375 -0.09375 -0.5 -0.15625q-0.265625 -0.0625 -0.546875 -0.0625q-0.515625 0 -0.921875 0.25q-0.40625 0.234375 -0.78125 0.796875l0 7.421875l-2.53125 0zm8.077362 0.171875q-0.734375 0 -1.265625 -0.375q-0.53125 -0.390625 -0.8125 -0.96875q-0.28125 -0.59375 -0.28125 -1.234375q0 -1.015625 0.375 -1.703125q0.375 -0.6875 1.0 -1.15625q0.625 -0.46875 1.390625 -0.8125q0.78125 -0.34375 1.609375 -0.625l0 -0.921875q0 -0.46875 -0.078125 -0.78125q-0.0625 -0.328125 -0.25 -0.484375q-0.1875 -0.171875 -0.53125 -0.171875q-0.34375 0 -0.546875 0.15625q-0.1875 0.140625 -0.28125 0.40625q-0.078125 0.265625 -0.078125 0.625l-0.03125 0.65625l-2.421875 -0.09375q0.078125 -1.859375 0.921875 -2.75q0.859375 -0.890625 2.640625 -0.890625q1.625 0 2.359375 0.90625q0.75 0.890625 0.75 2.421875l0 4.96875q0 0.609375 0.03125 1.09375q0.03125 0.484375 0.078125 0.875q0.046875 0.390625 0.078125 0.6875l-2.296875 0q-0.046875 -0.375 -0.125 -0.84375q-0.078125 -0.484375 -0.109375 -0.703125q-0.1875 0.65625 -0.71875 1.1875q-0.515625 0.53125 -1.40625 0.53125zm0.921875 -1.890625q0.25 0 0.453125 -0.109375q0.203125 -0.125 0.375 -0.296875q0.171875 -0.171875 0.265625 -0.296875l0 -3.0q-0.4375 0.234375 -0.796875 0.484375q-0.359375 0.234375 -0.625 0.53125q-0.265625 0.28125 -0.421875 0.625q-0.140625 0.328125 -0.140625 0.78125q0 0.59375 0.234375 0.9375q0.234375 0.34375 0.65625 0.34375zm8.5998535 5.28125q-1.09375 0 -1.953125 -0.234375q-0.84375 -0.234375 -1.328125 -0.703125q-0.46875 -0.453125 -0.46875 -1.1875q0 -0.5625 0.25 -1.0q0.265625 -0.421875 0.703125 -0.71875q0.4375 -0.3125 0.9375 -0.5l1.0625 0.171875q-0.21875 0.1875 -0.421875 0.390625q-0.1875 0.203125 -0.328125 0.421875q-0.125 0.21875 -0.125 0.5q0 0.453125 0.4375 0.671875q0.4375 0.234375 1.515625 0.234375q1.0 0 1.5 -0.21875q0.5 -0.203125 0.5 -0.703125q0 -0.296875 -0.140625 -0.484375q-0.125 -0.171875 -0.4375 -0.28125q-0.296875 -0.109375 -0.859375 -0.171875l-2.53125 -0.3125q-0.78125 -0.109375 -1.21875 -0.546875q-0.4375 -0.4375 -0.4375 -1.03125q0 -0.671875 0.390625 -1.1875q0.40625 -0.515625 1.0625 -1.078125l0.859375 0.5625q-0.171875 0.1875 -0.328125 0.421875q-0.140625 0.234375 -0.140625 0.5q0 0.203125 0.21875 0.328125q0.21875 0.125 0.75 0.1875l2.203125 0.265625q1.3125 0.125 1.9375 0.828125q0.625 0.703125 0.625 1.890625q0 0.984375 -0.4375 1.640625q-0.4375 0.671875 -1.375 1.0q-0.921875 0.34375 -2.421875 0.34375zm0.140625 -6.984375q-1.203125 0 -1.984375 -0.453125q-0.765625 -0.46875 -1.15625 -1.3125q-0.390625 -0.84375 -0.390625 -1.96875q0 -1.234375 0.40625 -2.078125q0.421875 -0.859375 1.203125 -1.28125q0.78125 -0.4375 1.921875 -0.4375q1.140625 0 1.875 0.484375q0.75 0.484375 1.125 1.34375q0.390625 0.859375 0.390625 1.984375q0 1.140625 -0.359375 1.984375q-0.359375 0.828125 -1.109375 1.28125q-0.734375 0.453125 -1.921875 0.453125zm0 -1.609375q0.328125 0 0.515625 -0.125q0.203125 -0.140625 0.3125 -0.40625q0.109375 -0.265625 0.140625 -0.65625q0.046875 -0.40625 0.046875 -0.9375q0 -0.5625 -0.03125 -0.96875q-0.03125 -0.40625 -0.15625 -0.671875q-0.109375 -0.265625 -0.3125 -0.390625q-0.1875 -0.140625 -0.5 -0.140625q-0.328125 0 -0.546875 0.140625q-0.203125 0.125 -0.328125 0.390625q-0.109375 0.25 -0.15625 0.671875q-0.03125 0.40625 -0.03125 0.96875q0 0.5 0.03125 0.90625q0.046875 0.390625 0.15625 0.671875q0.109375 0.265625 0.3125 0.40625q0.203125 0.140625 0.546875 0.140625zm2.875 -4.0l-0.5625 -0.78125q0.21875 -0.40625 0.6875 -0.765625q0.46875 -0.359375 1.125 -0.65625l0.625 1.390625q-0.21875 0.046875 -0.625 0.203125q-0.390625 0.140625 -0.765625 0.328125q-0.359375 0.171875 -0.484375 0.28125zm5.796631 9.203125q-1.21875 0 -1.984375 -0.453125q-0.75 -0.46875 -1.125 -1.34375q-0.359375 -0.890625 -0.359375 -2.140625l0 -3.25q0 -1.28125 0.359375 -2.15625q0.375 -0.890625 1.140625 -1.328125q0.78125 -0.453125 1.96875 -0.453125q1.28125 0 2.0 0.484375q0.71875 0.484375 1.03125 1.40625q0.3125 0.921875 0.3125 2.25l0 1.53125l-4.296875 0l0 2.125q0 0.53125 0.09375 0.875q0.109375 0.328125 0.328125 0.484375q0.234375 0.140625 0.546875 0.140625q0.34375 0 0.546875 -0.15625q0.203125 -0.171875 0.296875 -0.46875q0.09375 -0.3125 0.09375 -0.78125l0 -0.890625l2.375 0l0 0.71875q0 1.65625 -0.828125 2.53125q-0.828125 0.875 -2.5 0.875zm-0.953125 -6.703125l1.90625 0l0 -1.03125q0 -0.546875 -0.09375 -0.890625q-0.09375 -0.359375 -0.296875 -0.515625q-0.203125 -0.15625 -0.578125 -0.15625q-0.34375 0 -0.546875 0.171875q-0.203125 0.171875 -0.296875 0.5625q-0.09375 0.390625 -0.09375 1.109375l0 0.75zm6.2269287 -1.171875l0 -2.5l2.4375 0l0 2.5l-2.4375 0zm0 6.296875l0 -2.5l2.4375 0l0 2.5l-2.4375 0zm4.3026123 1.40625l0 -10.78125l2.53125 0l0 1.65625q0.5625 -0.953125 1.125 -1.359375q0.5625 -0.421875 1.21875 -0.421875q0.125 0 0.203125 0.015625q0.078125 0 0.203125 0.015625l0 2.625q-0.234375 -0.09375 -0.5 -0.15625q-0.265625 -0.0625 -0.546875 -0.0625q-0.515625 0 -0.921875 0.25q-0.40625 0.234375 -0.78125 0.796875l0 7.421875l-2.53125 0zm9.751434 0.171875q-1.171875 0 -1.9375 -0.4375q-0.765625 -0.4375 -1.15625 -1.28125q-0.375 -0.84375 -0.375 -2.03125l0 -3.625q0 -1.1875 0.375 -2.03125q0.390625 -0.84375 1.15625 -1.28125q0.765625 -0.4375 1.9375 -0.4375q1.171875 0 1.9375 0.4375q0.78125 0.4375 1.15625 1.28125q0.390625 0.84375 0.390625 2.03125l0 3.625q0 1.1875 -0.390625 2.03125q-0.375 0.84375 -1.15625 1.28125q-0.765625 0.4375 -1.9375 0.4375zm0.015625 -1.75q0.4375 0 0.640625 -0.25q0.203125 -0.25 0.25 -0.65625q0.0625 -0.421875 0.0625 -0.9375l0 -3.953125q0 -0.5 -0.0625 -0.90625q-0.046875 -0.40625 -0.25 -0.65625q-0.203125 -0.265625 -0.640625 -0.265625q-0.421875 0 -0.625 0.265625q-0.203125 0.25 -0.28125 0.65625q-0.0625 0.40625 -0.0625 0.90625l0 3.953125q0 0.515625 0.0625 0.9375q0.078125 0.40625 0.28125 0.65625q0.203125 0.25 0.625 0.25zm8.472992 1.75q-1.171875 0 -1.9375 -0.4375q-0.765625 -0.4375 -1.15625 -1.28125q-0.375 -0.84375 -0.375 -2.03125l0 -3.625q0 -1.1875 0.375 -2.03125q0.390625 -0.84375 1.15625 -1.28125q0.765625 -0.4375 1.9375 -0.4375q1.171875 0 1.9375 0.4375q0.78125 0.4375 1.15625 1.28125q0.390625 0.84375 0.390625 2.03125l0 3.625q0 1.1875 -0.390625 2.03125q-0.375 0.84375 -1.15625 1.28125q-0.765625 0.4375 -1.9375 0.4375zm0.015625 -1.75q0.4375 0 0.640625 -0.25q0.203125 -0.25 0.25 -0.65625q0.0625 -0.421875 0.0625 -0.9375l0 -3.953125q0 -0.5 -0.0625 -0.90625q-0.046875 -0.40625 -0.25 -0.65625q-0.203125 -0.265625 -0.640625 -0.265625q-0.421875 0 -0.625 0.265625q-0.203125 0.25 -0.28125 0.65625q-0.0625 0.40625 -0.0625 0.90625l0 3.953125q0 0.515625 0.0625 0.9375q0.078125 0.40625 0.28125 0.65625q0.203125 0.25 0.625 0.25zm5.2073364 1.578125l0 -10.78125l2.453125 0l0 0.9375q0.546875 -0.609375 1.203125 -0.875q0.65625 -0.265625 1.328125 -0.265625q0.625 0 1.09375 0.3125q0.484375 0.3125 0.71875 1.015625q0.609375 -0.71875 1.296875 -1.015625q0.6875 -0.3125 1.421875 -0.3125q0.578125 0 1.015625 0.296875q0.453125 0.28125 0.71875 0.859375q0.265625 0.5625 0.265625 1.421875l0 8.40625l-2.421875 0l0 -8.1875q0 -0.625 -0.21875 -0.84375q-0.203125 -0.234375 -0.578125 -0.234375q-0.296875 0 -0.65625 0.171875q-0.359375 0.15625 -0.65625 0.453125q0 0.0625 0 0.109375q0 0.046875 0 0.125l0 8.40625l-2.40625 0l0 -8.1875q0 -0.625 -0.21875 -0.84375q-0.21875 -0.234375 -0.59375 -0.234375q-0.296875 0 -0.65625 0.171875q-0.34375 0.15625 -0.65625 0.453125l0 8.640625l-2.453125 0z" fill-rule="nonzero"/><path fill="#d9ead3" d="m260.49997 310.20493l0 0c0 -5.4562683 4.4231567 -9.879456 9.879456 -9.879456l157.12296 0c2.6202087 0 5.133087 1.040863 6.98584 2.8936157c1.8527527 1.8527527 2.8936157 4.365631 2.8936157 6.98584l0 39.516663c0 5.4562683 -4.4231873 9.879456 -9.879456 9.879456l-157.12296 0c-5.456299 0 -9.879456 -4.4231873 -9.879456 -9.879456z" fill-rule="evenodd"/><path stroke="#434343" stroke-width="2.0" stroke-linejoin="round" stroke-linecap="butt" d="m260.49997 310.20493l0 0c0 -5.4562683 4.4231567 -9.879456 9.879456 -9.879456l157.12296 0c2.6202087 0 5.133087 1.040863 6.98584 2.8936157c1.8527527 1.8527527 2.8936157 4.365631 2.8936157 6.98584l0 39.516663c0 5.4562683 -4.4231873 9.879456 -9.879456 9.879456l-157.12296 0c-5.456299 0 -9.879456 -4.4231873 -9.879456 -9.879456z" fill-rule="evenodd"/><path fill="#434343" d="m276.21243 329.1801l0 -2.5l2.4375 0l0 2.5l-2.4375 0zm0 6.296875l0 -2.5l2.4375 0l0 2.5l-2.4375 0zm7.1776123 1.578125q-1.375 0 -2.25 -0.71875q-0.875 -0.734375 -1.25 -2.140625l1.890625 -0.734375q0.21875 0.890625 0.59375 1.359375q0.375 0.453125 0.96875 0.453125q0.453125 0 0.671875 -0.21875q0.21875 -0.21875 0.21875 -0.609375q0 -0.453125 -0.265625 -0.8125q-0.265625 -0.375 -0.921875 -0.90625l-1.3125 -1.109375q-0.703125 -0.609375 -1.140625 -1.25q-0.4375 -0.640625 -0.4375 -1.625q0 -0.875 0.390625 -1.5q0.40625 -0.625 1.109375 -0.96875q0.703125 -0.34375 1.5625 -0.34375q1.34375 0 2.140625 0.78125q0.796875 0.765625 1.046875 2.015625l-1.71875 0.71875q-0.09375 -0.453125 -0.28125 -0.828125q-0.171875 -0.390625 -0.453125 -0.625q-0.265625 -0.25 -0.65625 -0.25q-0.390625 0 -0.625 0.25q-0.234375 0.234375 -0.234375 0.609375q0 0.3125 0.265625 0.65625q0.265625 0.328125 0.78125 0.765625l1.3125 1.1875q0.4375 0.375 0.828125 0.8125q0.390625 0.421875 0.640625 0.953125q0.265625 0.53125 0.265625 1.21875q0 0.9375 -0.421875 1.578125q-0.40625 0.625 -1.125 0.953125q-0.71875 0.328125 -1.59375 0.328125zm7.665619 -0.046875q-1.03125 0 -1.625 -0.328125q-0.578125 -0.34375 -0.828125 -0.96875q-0.234375 -0.640625 -0.234375 -1.515625l0 -6.421875l-1.09375 0l0 -1.671875l1.09375 0l0 -3.234375l2.546875 0l0 3.234375l1.640625 0l0 1.671875l-1.640625 0l0 6.203125q0 0.5625 0.234375 0.796875q0.25 0.21875 0.734375 0.21875q0.21875 0 0.40625 -0.015625q0.203125 -0.015625 0.390625 -0.03125l0 1.9375q-0.328125 0.03125 -0.75 0.078125q-0.40625 0.046875 -0.875 0.046875zm6.2815857 0.046875q-1.171875 0 -1.9375 -0.4375q-0.765625 -0.4375 -1.15625 -1.28125q-0.375 -0.84375 -0.375 -2.03125l0 -3.625q0 -1.1875 0.375 -2.03125q0.390625 -0.84375 1.15625 -1.28125q0.765625 -0.4375 1.9375 -0.4375q1.171875 0 1.9375 0.4375q0.78125 0.4375 1.15625 1.28125q0.390625 0.84375 0.390625 2.03125l0 3.625q0 1.1875 -0.390625 2.03125q-0.375 0.84375 -1.15625 1.28125q-0.765625 0.4375 -1.9375 0.4375zm0.015625 -1.75q0.4375 0 0.640625 -0.25q0.203125 -0.25 0.25 -0.65625q0.0625 -0.421875 0.0625 -0.9375l0 -3.953125q0 -0.5 -0.0625 -0.90625q-0.046875 -0.40625 -0.25 -0.65625q-0.203125 -0.265625 -0.640625 -0.265625q-0.421875 0 -0.625 0.265625q-0.203125 0.25 -0.28125 0.65625q-0.0625 0.40625 -0.0625 0.90625l0 3.953125q0 0.515625 0.0625 0.9375q0.078125 0.40625 0.28125 0.65625q0.203125 0.25 0.625 0.25zm5.2698364 1.578125l0 -10.78125l2.53125 0l0 1.65625q0.5625 -0.953125 1.125 -1.359375q0.5625 -0.421875 1.21875 -0.421875q0.125 0 0.203125 0.015625q0.078125 0 0.203125 0.015625l0 2.625q-0.234375 -0.09375 -0.5 -0.15625q-0.265625 -0.0625 -0.546875 -0.0625q-0.515625 0 -0.921875 0.25q-0.40625 0.234375 -0.78125 0.796875l0 7.421875l-2.53125 0zm8.077393 0.171875q-0.734375 0 -1.265625 -0.375q-0.53125 -0.390625 -0.8125 -0.96875q-0.28125 -0.59375 -0.28125 -1.234375q0 -1.015625 0.375 -1.703125q0.375 -0.6875 1.0 -1.15625q0.625 -0.46875 1.390625 -0.8125q0.78125 -0.34375 1.609375 -0.625l0 -0.921875q0 -0.46875 -0.078125 -0.78125q-0.0625 -0.328125 -0.25 -0.484375q-0.1875 -0.171875 -0.53125 -0.171875q-0.34375 0 -0.546875 0.15625q-0.1875 0.140625 -0.28125 0.40625q-0.078125 0.265625 -0.078125 0.625l-0.03125 0.65625l-2.421875 -0.09375q0.078125 -1.859375 0.921875 -2.75q0.859375 -0.890625 2.640625 -0.890625q1.625 0 2.359375 0.90625q0.75 0.890625 0.75 2.421875l0 4.96875q0 0.609375 0.03125 1.09375q0.03125 0.484375 0.078125 0.875q0.046875 0.390625 0.078125 0.6875l-2.296875 0q-0.046875 -0.375 -0.125 -0.84375q-0.078125 -0.484375 -0.109375 -0.703125q-0.1875 0.65625 -0.71875 1.1875q-0.515625 0.53125 -1.40625 0.53125zm0.921875 -1.890625q0.25 0 0.453125 -0.109375q0.203125 -0.125 0.375 -0.296875q0.171875 -0.171875 0.265625 -0.296875l0 -3.0q-0.4375 0.234375 -0.796875 0.484375q-0.359375 0.234375 -0.625 0.53125q-0.265625 0.28125 -0.421875 0.625q-0.140625 0.328125 -0.140625 0.78125q0 0.59375 0.234375 0.9375q0.234375 0.34375 0.65625 0.34375zm8.599823 5.28125q-1.09375 0 -1.953125 -0.234375q-0.84375 -0.234375 -1.328125 -0.703125q-0.46875 -0.453125 -0.46875 -1.1875q0 -0.5625 0.25 -1.0q0.265625 -0.421875 0.703125 -0.71875q0.4375 -0.3125 0.9375 -0.5l1.0625 0.171875q-0.21875 0.1875 -0.421875 0.390625q-0.1875 0.203125 -0.328125 0.421875q-0.125 0.21875 -0.125 0.5q0 0.453125 0.4375 0.671875q0.4375 0.234375 1.515625 0.234375q1.0 0 1.5 -0.21875q0.5 -0.203125 0.5 -0.703125q0 -0.296875 -0.140625 -0.484375q-0.125 -0.171875 -0.4375 -0.28125q-0.296875 -0.109375 -0.859375 -0.171875l-2.53125 -0.3125q-0.78125 -0.109375 -1.21875 -0.546875q-0.4375 -0.4375 -0.4375 -1.03125q0 -0.671875 0.390625 -1.1875q0.40625 -0.515625 1.0625 -1.078125l0.859375 0.5625q-0.171875 0.1875 -0.328125 0.421875q-0.140625 0.234375 -0.140625 0.5q0 0.203125 0.21875 0.328125q0.21875 0.125 0.75 0.1875l2.203125 0.265625q1.3125 0.125 1.9375 0.828125q0.625 0.703125 0.625 1.890625q0 0.984375 -0.4375 1.640625q-0.4375 0.671875 -1.375 1.0q-0.921875 0.34375 -2.421875 0.34375zm0.140625 -6.984375q-1.203125 0 -1.984375 -0.453125q-0.765625 -0.46875 -1.15625 -1.3125q-0.390625 -0.84375 -0.390625 -1.96875q0 -1.234375 0.40625 -2.078125q0.421875 -0.859375 1.203125 -1.28125q0.78125 -0.4375 1.921875 -0.4375q1.140625 0 1.875 0.484375q0.75 0.484375 1.125 1.34375q0.390625 0.859375 0.390625 1.984375q0 1.140625 -0.359375 1.984375q-0.359375 0.828125 -1.109375 1.28125q-0.734375 0.453125 -1.921875 0.453125zm0 -1.609375q0.328125 0 0.515625 -0.125q0.203125 -0.140625 0.3125 -0.40625q0.109375 -0.265625 0.140625 -0.65625q0.046875 -0.40625 0.046875 -0.9375q0 -0.5625 -0.03125 -0.96875q-0.03125 -0.40625 -0.15625 -0.671875q-0.109375 -0.265625 -0.3125 -0.390625q-0.1875 -0.140625 -0.5 -0.140625q-0.328125 0 -0.546875 0.140625q-0.203125 0.125 -0.328125 0.390625q-0.109375 0.25 -0.15625 0.671875q-0.03125 0.40625 -0.03125 0.96875q0 0.5 0.03125 0.90625q0.046875 0.390625 0.15625 0.671875q0.109375 0.265625 0.3125 0.40625q0.203125 0.140625 0.546875 0.140625zm2.875 -4.0l-0.5625 -0.78125q0.21875 -0.40625 0.6875 -0.765625q0.46875 -0.359375 1.125 -0.65625l0.625 1.390625q-0.21875 0.046875 -0.625 0.203125q-0.390625 0.140625 -0.765625 0.328125q-0.359375 0.171875 -0.484375 0.28125zm5.796631 9.203125q-1.21875 0 -1.984375 -0.453125q-0.75 -0.46875 -1.125 -1.34375q-0.359375 -0.890625 -0.359375 -2.140625l0 -3.25q0 -1.28125 0.359375 -2.15625q0.375 -0.890625 1.140625 -1.328125q0.78125 -0.453125 1.96875 -0.453125q1.28125 0 2.0 0.484375q0.71875 0.484375 1.03125 1.40625q0.3125 0.921875 0.3125 2.25l0 1.53125l-4.296875 0l0 2.125q0 0.53125 0.09375 0.875q0.109375 0.328125 0.328125 0.484375q0.234375 0.140625 0.546875 0.140625q0.34375 0 0.546875 -0.15625q0.203125 -0.171875 0.296875 -0.46875q0.09375 -0.3125 0.09375 -0.78125l0 -0.890625l2.375 0l0 0.71875q0 1.65625 -0.828125 2.53125q-0.828125 0.875 -2.5 0.875zm-0.953125 -6.703125l1.90625 0l0 -1.03125q0 -0.546875 -0.09375 -0.890625q-0.09375 -0.359375 -0.296875 -0.515625q-0.203125 -0.15625 -0.578125 -0.15625q-0.34375 0 -0.546875 0.171875q-0.203125 0.171875 -0.296875 0.5625q-0.09375 0.390625 -0.09375 1.109375l0 0.75zm6.226959 -1.171875l0 -2.5l2.4375 0l0 2.5l-2.4375 0zm0 6.296875l0 -2.5l2.4375 0l0 2.5l-2.4375 0zm4.240082 4.953125l0 -14.328125l2.53125 0l0 0.8125q0.46875 -0.4375 1.03125 -0.703125q0.5625 -0.28125 1.171875 -0.28125q0.734375 0 1.203125 0.34375q0.46875 0.328125 0.71875 0.890625q0.265625 0.546875 0.359375 1.171875q0.109375 0.625 0.109375 1.203125l0 3.65625q0 1.0625 -0.25 1.9375q-0.25 0.875 -0.796875 1.40625q-0.546875 0.515625 -1.46875 0.515625q-0.578125 0 -1.09375 -0.28125q-0.515625 -0.28125 -0.984375 -0.71875l0 4.375l-2.53125 0zm3.65625 -5.15625q0.40625 0 0.59375 -0.265625q0.203125 -0.265625 0.265625 -0.71875q0.078125 -0.46875 0.078125 -1.0l0 -3.875q0 -0.5 -0.078125 -0.890625q-0.078125 -0.40625 -0.28125 -0.640625q-0.203125 -0.25 -0.59375 -0.25q-0.296875 0 -0.59375 0.140625q-0.28125 0.140625 -0.515625 0.328125l0 6.796875q0.25 0.171875 0.53125 0.28125q0.28125 0.09375 0.59375 0.09375zm5.286621 1.609375l0 -10.78125l2.53125 0l0 1.65625q0.5625 -0.953125 1.125 -1.359375q0.5625 -0.421875 1.21875 -0.421875q0.125 0 0.203125 0.015625q0.078125 0 0.203125 0.015625l0 2.625q-0.234375 -0.09375 -0.5 -0.15625q-0.265625 -0.0625 -0.546875 -0.0625q-0.515625 0 -0.921875 0.25q-0.40625 0.234375 -0.78125 0.796875l0 7.421875l-2.53125 0zm9.751465 0.171875q-1.21875 0 -1.984375 -0.453125q-0.75 -0.46875 -1.125 -1.34375q-0.359375 -0.890625 -0.359375 -2.140625l0 -3.25q0 -1.28125 0.359375 -2.15625q0.375 -0.890625 1.140625 -1.328125q0.78125 -0.453125 1.96875 -0.453125q1.28125 0 2.0 0.484375q0.71875 0.484375 1.03125 1.40625q0.3125 0.921875 0.3125 2.25l0 1.53125l-4.296875 0l0 2.125q0 0.53125 0.09375 0.875q0.109375 0.328125 0.328125 0.484375q0.234375 0.140625 0.546875 0.140625q0.34375 0 0.546875 -0.15625q0.203125 -0.171875 0.296875 -0.46875q0.09375 -0.3125 0.09375 -0.78125l0 -0.890625l2.375 0l0 0.71875q0 1.65625 -0.828125 2.53125q-0.828125 0.875 -2.5 0.875zm-0.953125 -6.703125l1.90625 0l0 -1.03125q0 -0.546875 -0.09375 -0.890625q-0.09375 -0.359375 -0.296875 -0.515625q-0.203125 -0.15625 -0.578125 -0.15625q-0.34375 0 -0.546875 0.171875q-0.203125 0.171875 -0.296875 0.5625q-0.09375 0.390625 -0.09375 1.109375l0 0.75zm6.5394287 6.53125l0 -9.015625l-1.171875 0l0 -1.765625l1.171875 0l0 -0.6875q0 -0.96875 0.171875 -1.6875q0.171875 -0.71875 0.734375 -1.109375q0.578125 -0.390625 1.734375 -0.390625q0.359375 0 0.671875 0.03125q0.3125 0.015625 0.703125 0.078125l0 1.875q-0.140625 -0.03125 -0.34375 -0.0625q-0.1875 -0.03125 -0.359375 -0.03125q-0.453125 0 -0.625 0.28125q-0.15625 0.28125 -0.15625 0.828125l0 0.875l1.484375 0l0 1.765625l-1.484375 0l0 9.015625l-2.53125 0zm8.275238 0.171875q-1.21875 0 -1.984375 -0.453125q-0.75 -0.46875 -1.125 -1.34375q-0.359375 -0.890625 -0.359375 -2.140625l0 -3.25q0 -1.28125 0.359375 -2.15625q0.375 -0.890625 1.140625 -1.328125q0.78125 -0.453125 1.96875 -0.453125q1.28125 0 2.0 0.484375q0.71875 0.484375 1.03125 1.40625q0.3125 0.921875 0.3125 2.25l0 1.53125l-4.296875 0l0 2.125q0 0.53125 0.09375 0.875q0.109375 0.328125 0.328125 0.484375q0.234375 0.140625 0.546875 0.140625q0.34375 0 0.546875 -0.15625q0.203125 -0.171875 0.296875 -0.46875q0.09375 -0.3125 0.09375 -0.78125l0 -0.890625l2.375 0l0 0.71875q0 1.65625 -0.828125 2.53125q-0.828125 0.875 -2.5 0.875zm-0.953125 -6.703125l1.90625 0l0 -1.03125q0 -0.546875 -0.09375 -0.890625q-0.09375 -0.359375 -0.296875 -0.515625q-0.203125 -0.15625 -0.578125 -0.15625q-0.34375 0 -0.546875 0.171875q-0.203125 0.171875 -0.296875 0.5625q-0.09375 0.390625 -0.09375 1.109375l0 0.75zm6.0706787 6.53125l0 -10.78125l2.53125 0l0 1.65625q0.5625 -0.953125 1.125 -1.359375q0.5625 -0.421875 1.21875 -0.421875q0.125 0 0.203125 0.015625q0.078125 0 0.203125 0.015625l0 2.625q-0.234375 -0.09375 -0.5 -0.15625q-0.265625 -0.0625 -0.546875 -0.0625q-0.515625 0 -0.921875 0.25q-0.40625 0.234375 -0.78125 0.796875l0 7.421875l-2.53125 0zm9.751465 0.171875q-1.21875 0 -1.984375 -0.453125q-0.75 -0.46875 -1.125 -1.34375q-0.359375 -0.890625 -0.359375 -2.140625l0 -3.25q0 -1.28125 0.359375 -2.15625q0.375 -0.890625 1.140625 -1.328125q0.78125 -0.453125 1.96875 -0.453125q1.28125 0 2.0 0.484375q0.71875 0.484375 1.03125 1.40625q0.3125 0.921875 0.3125 2.25l0 1.53125l-4.296875 0l0 2.125q0 0.53125 0.09375 0.875q0.109375 0.328125 0.328125 0.484375q0.234375 0.140625 0.546875 0.140625q0.34375 0 0.546875 -0.15625q0.203125 -0.171875 0.296875 -0.46875q0.09375 -0.3125 0.09375 -0.78125l0 -0.890625l2.375 0l0 0.71875q0 1.65625 -0.828125 2.53125q-0.828125 0.875 -2.5 0.875zm-0.953125 -6.703125l1.90625 0l0 -1.03125q0 -0.546875 -0.09375 -0.890625q-0.09375 -0.359375 -0.296875 -0.515625q-0.203125 -0.15625 -0.578125 -0.15625q-0.34375 0 -0.546875 0.171875q-0.203125 0.171875 -0.296875 0.5625q-0.09375 0.390625 -0.09375 1.109375l0 0.75zm6.0081787 6.53125l0 -10.78125l2.53125 0l0 1.078125q0.578125 -0.5625 1.21875 -0.90625q0.65625 -0.34375 1.40625 -0.34375q0.671875 0 1.0625 0.328125q0.390625 0.328125 0.578125 0.875q0.1875 0.53125 0.1875 1.171875l0 8.578125l-2.546875 0l0 -8.078125q0 -0.484375 -0.15625 -0.734375q-0.140625 -0.265625 -0.5625 -0.265625q-0.265625 0 -0.578125 0.15625q-0.296875 0.140625 -0.609375 0.359375l0 8.5625l-2.53125 0zm12.093079 0.171875q-1.25 0 -2.015625 -0.46875q-0.75 -0.484375 -1.09375 -1.375q-0.34375 -0.890625 -0.34375 -2.09375l0 -3.25q0 -1.25 0.34375 -2.125q0.34375 -0.875 1.109375 -1.34375q0.765625 -0.46875 2.0 -0.46875q1.15625 0 1.890625 0.375q0.734375 0.359375 1.0625 1.09375q0.34375 0.734375 0.34375 1.859375l0 0.890625l-2.390625 0l0 -0.953125q0 -0.5625 -0.078125 -0.890625q-0.078125 -0.328125 -0.296875 -0.453125q-0.203125 -0.140625 -0.53125 -0.140625q-0.34375 0 -0.546875 0.171875q-0.203125 0.171875 -0.296875 0.5625q-0.078125 0.390625 -0.078125 1.09375l0 3.953125q0 1.046875 0.21875 1.40625q0.234375 0.359375 0.71875 0.359375q0.375 0 0.5625 -0.15625q0.203125 -0.171875 0.265625 -0.5q0.0625 -0.328125 0.0625 -0.796875l0 -1.15625l2.390625 0l0 1.03125q0 1.078125 -0.34375 1.84375q-0.34375 0.765625 -1.078125 1.15625q-0.734375 0.375 -1.875 0.375zm8.187042 0q-1.21875 0 -1.984375 -0.453125q-0.75 -0.46875 -1.125 -1.34375q-0.359375 -0.890625 -0.359375 -2.140625l0 -3.25q0 -1.28125 0.359375 -2.15625q0.375 -0.890625 1.140625 -1.328125q0.78125 -0.453125 1.96875 -0.453125q1.28125 0 2.0 0.484375q0.71875 0.484375 1.03125 1.40625q0.3125 0.921875 0.3125 2.25l0 1.53125l-4.296875 0l0 2.125q0 0.53125 0.09375 0.875q0.109375 0.328125 0.328125 0.484375q0.234375 0.140625 0.546875 0.140625q0.34375 0 0.546875 -0.15625q0.203125 -0.171875 0.296875 -0.46875q0.09375 -0.3125 0.09375 -0.78125l0 -0.890625l2.375 0l0 0.71875q0 1.65625 -0.828125 2.53125q-0.828125 0.875 -2.5 0.875zm-0.953125 -6.703125l1.90625 0l0 -1.03125q0 -0.546875 -0.09375 -0.890625q-0.09375 -0.359375 -0.296875 -0.515625q-0.203125 -0.15625 -0.578125 -0.15625q-0.34375 0 -0.546875 0.171875q-0.203125 0.171875 -0.296875 0.5625q-0.09375 0.390625 -0.09375 1.109375l0 0.75zm8.945679 6.703125q-1.375 0 -2.25 -0.71875q-0.875 -0.734375 -1.25 -2.140625l1.890625 -0.734375q0.21875 0.890625 0.59375 1.359375q0.375 0.453125 0.96875 0.453125q0.453125 0 0.671875 -0.21875q0.21875 -0.21875 0.21875 -0.609375q0 -0.453125 -0.265625 -0.8125q-0.265625 -0.375 -0.921875 -0.90625l-1.3125 -1.109375q-0.703125 -0.609375 -1.140625 -1.25q-0.4375 -0.640625 -0.4375 -1.625q0 -0.875 0.390625 -1.5q0.40625 -0.625 1.109375 -0.96875q0.703125 -0.34375 1.5625 -0.34375q1.34375 0 2.140625 0.78125q0.796875 0.765625 1.046875 2.015625l-1.71875 0.71875q-0.09375 -0.453125 -0.28125 -0.828125q-0.171875 -0.390625 -0.453125 -0.625q-0.265625 -0.25 -0.65625 -0.25q-0.390625 0 -0.625 0.25q-0.234375 0.234375 -0.234375 0.609375q0 0.3125 0.265625 0.65625q0.265625 0.328125 0.78125 0.765625l1.3125 1.1875q0.4375 0.375 0.828125 0.8125q0.390625 0.421875 0.640625 0.953125q0.265625 0.53125 0.265625 1.21875q0 0.9375 -0.421875 1.578125q-0.40625 0.625 -1.125 0.953125q-0.71875 0.328125 -1.59375 0.328125z" fill-rule="nonzero"/><path fill="#d9d2e9" d="m515.4354 169.31778l0 0c0 -5.4562683 4.423218 -9.879456 9.879517 -9.879456l157.12292 0c2.6202393 0 5.1331177 1.040863 6.98584 2.893631c1.8527832 1.8527527 2.8936157 4.365631 2.8936157 6.9858246l0 39.516663c0 5.4562836 -4.4231567 9.879471 -9.879456 9.879471l-157.12292 0c-5.456299 0 -9.879517 -4.4231873 -9.879517 -9.879471z" fill-rule="evenodd"/><path stroke="#434343" stroke-width="2.0" stroke-linejoin="round" stroke-linecap="butt" d="m515.4354 169.31778l0 0c0 -5.4562683 4.423218 -9.879456 9.879517 -9.879456l157.12292 0c2.6202393 0 5.1331177 1.040863 6.98584 2.893631c1.8527832 1.8527527 2.8936157 4.365631 2.8936157 6.9858246l0 39.516663c0 5.4562836 -4.4231567 9.879471 -9.879456 9.879471l-157.12292 0c-5.456299 0 -9.879517 -4.4231873 -9.879517 -9.879471z" fill-rule="evenodd"/><path fill="#434343" d="m541.7352 188.29298l0 -2.5l2.4375 0l0 2.5l-2.4375 0zm0 6.296875l0 -2.5l2.4375 0l0 2.5l-2.4375 0zm8.880737 1.578125q-0.59375 0 -1.125 -0.28125q-0.515625 -0.28125 -0.953125 -0.6875l0 0.796875l-2.546875 0l0 -15.109375l2.546875 0l0 5.140625q0.46875 -0.4375 1.015625 -0.703125q0.546875 -0.28125 1.1875 -0.28125q0.71875 0 1.1875 0.34375q0.46875 0.328125 0.71875 0.890625q0.265625 0.546875 0.359375 1.171875q0.109375 0.625 0.109375 1.203125l0 3.65625q0 1.0625 -0.25 1.9375q-0.25 0.875 -0.796875 1.40625q-0.546875 0.515625 -1.453125 0.515625zm-0.96875 -1.78125q0.421875 0 0.609375 -0.265625q0.203125 -0.265625 0.265625 -0.71875q0.0625 -0.46875 0.0625 -1.0l0 -3.875q0 -0.5 -0.078125 -0.890625q-0.078125 -0.40625 -0.28125 -0.640625q-0.1875 -0.25 -0.59375 -0.25q-0.296875 0 -0.578125 0.140625q-0.28125 0.140625 -0.515625 0.296875l0 6.8125q0.234375 0.171875 0.515625 0.28125q0.296875 0.109375 0.59375 0.109375zm5.398987 1.609375l0 -15.109375l2.515625 0l0 15.109375l-2.515625 0zm6.263916 0.171875q-0.625 0 -1.046875 -0.328125q-0.40625 -0.328125 -0.59375 -0.875q-0.1875 -0.546875 -0.1875 -1.171875l0 -8.578125l2.546875 0l0 8.109375q0 0.484375 0.15625 0.765625q0.15625 0.265625 0.578125 0.265625q0.28125 0 0.5625 -0.140625q0.296875 -0.15625 0.578125 -0.359375l0 -8.640625l2.53125 0l0 10.78125l-2.53125 0l0 -1.03125q-0.546875 0.53125 -1.203125 0.875q-0.640625 0.328125 -1.390625 0.328125zm10.355652 0q-1.21875 0 -1.984375 -0.453125q-0.75 -0.46875 -1.125 -1.34375q-0.359375 -0.890625 -0.359375 -2.140625l0 -3.25q0 -1.28125 0.359375 -2.15625q0.375 -0.890625 1.140625 -1.328125q0.78125 -0.453125 1.96875 -0.453125q1.28125 0 2.0 0.484375q0.71875 0.484375 1.03125 1.40625q0.3125 0.921875 0.3125 2.25l0 1.53125l-4.296875 0l0 2.125q0 0.53125 0.09375 0.875q0.109375 0.328125 0.328125 0.484375q0.234375 0.140625 0.546875 0.140625q0.34375 0 0.546875 -0.15625q0.203125 -0.171875 0.296875 -0.46875q0.09375 -0.3125 0.09375 -0.78125l0 -0.890625l2.375 0l0 0.71875q0 1.65625 -0.828125 2.53125q-0.828125 0.875 -2.5 0.875zm-0.953125 -6.703125l1.90625 0l0 -1.03125q0 -0.546875 -0.09375 -0.890625q-0.09375 -0.359375 -0.296875 -0.515625q-0.203125 -0.15625 -0.578125 -0.15625q-0.34375 0 -0.546875 0.171875q-0.203125 0.171875 -0.296875 0.5625q-0.09375 0.390625 -0.09375 1.109375l0 0.75zm9.148804 6.65625q-1.03125 0 -1.625 -0.328125q-0.578125 -0.34375 -0.828125 -0.96875q-0.234375 -0.640625 -0.234375 -1.515625l0 -6.421875l-1.09375 0l0 -1.671875l1.09375 0l0 -3.234375l2.546875 0l0 3.234375l1.640625 0l0 1.671875l-1.640625 0l0 6.203125q0 0.5625 0.234375 0.796875q0.25 0.21875 0.734375 0.21875q0.21875 0 0.40625 -0.015625q0.203125 -0.015625 0.390625 -0.03125l0 1.9375q-0.328125 0.03125 -0.75 0.078125q-0.40625 0.046875 -0.875 0.046875zm6.281555 0.046875q-1.171875 0 -1.9375 -0.4375q-0.765625 -0.4375 -1.15625 -1.28125q-0.375 -0.84375 -0.375 -2.03125l0 -3.625q0 -1.1875 0.375 -2.03125q0.390625 -0.84375 1.15625 -1.28125q0.765625 -0.4375 1.9375 -0.4375q1.171875 0 1.9375 0.4375q0.78125 0.4375 1.15625 1.28125q0.390625 0.84375 0.390625 2.03125l0 3.625q0 1.1875 -0.390625 2.03125q-0.375 0.84375 -1.15625 1.28125q-0.765625 0.4375 -1.9375 0.4375zm0.015625 -1.75q0.4375 0 0.640625 -0.25q0.203125 -0.25 0.25 -0.65625q0.0625 -0.421875 0.0625 -0.9375l0 -3.953125q0 -0.5 -0.0625 -0.90625q-0.046875 -0.40625 -0.25 -0.65625q-0.203125 -0.265625 -0.640625 -0.265625q-0.421875 0 -0.625 0.265625q-0.203125 0.25 -0.28125 0.65625q-0.0625 0.40625 -0.0625 0.90625l0 3.953125q0 0.515625 0.0625 0.9375q0.078125 0.40625 0.28125 0.65625q0.203125 0.25 0.625 0.25zm8.472961 1.75q-1.171875 0 -1.9375 -0.4375q-0.765625 -0.4375 -1.15625 -1.28125q-0.375 -0.84375 -0.375 -2.03125l0 -3.625q0 -1.1875 0.375 -2.03125q0.390625 -0.84375 1.15625 -1.28125q0.765625 -0.4375 1.9375 -0.4375q1.171875 0 1.9375 0.4375q0.78125 0.4375 1.15625 1.28125q0.390625 0.84375 0.390625 2.03125l0 3.625q0 1.1875 -0.390625 2.03125q-0.375 0.84375 -1.15625 1.28125q-0.765625 0.4375 -1.9375 0.4375zm0.015625 -1.75q0.4375 0 0.640625 -0.25q0.203125 -0.25 0.25 -0.65625q0.0625 -0.421875 0.0625 -0.9375l0 -3.953125q0 -0.5 -0.0625 -0.90625q-0.046875 -0.40625 -0.25 -0.65625q-0.203125 -0.265625 -0.640625 -0.265625q-0.421875 0 -0.625 0.265625q-0.203125 0.25 -0.28125 0.65625q-0.0625 0.40625 -0.0625 0.90625l0 3.953125q0 0.515625 0.0625 0.9375q0.078125 0.40625 0.28125 0.65625q0.203125 0.25 0.625 0.25zm8.348022 1.703125q-1.03125 0 -1.625 -0.328125q-0.578125 -0.34375 -0.828125 -0.96875q-0.234375 -0.640625 -0.234375 -1.515625l0 -6.421875l-1.09375 0l0 -1.671875l1.09375 0l0 -3.234375l2.546875 0l0 3.234375l1.640625 0l0 1.671875l-1.640625 0l0 6.203125q0 0.5625 0.234375 0.796875q0.25 0.21875 0.734375 0.21875q0.21875 0 0.40625 -0.015625q0.203125 -0.015625 0.390625 -0.03125l0 1.9375q-0.328125 0.03125 -0.75 0.078125q-0.40625 0.046875 -0.875 0.046875zm3.0471802 -0.125l0 -15.109375l2.546875 0l0 5.359375q0.5625 -0.5625 1.21875 -0.875q0.65625 -0.328125 1.453125 -0.328125q0.640625 0 1.03125 0.328125q0.40625 0.328125 0.578125 0.875q0.1875 0.53125 0.1875 1.171875l0 8.578125l-2.53125 0l0 -8.078125q0 -0.484375 -0.15625 -0.734375q-0.140625 -0.265625 -0.578125 -0.265625q-0.25 0 -0.578125 0.15625q-0.328125 0.140625 -0.625 0.375l0 8.546875l-2.546875 0zm9.105164 -7.703125l0 -2.5l2.4375 0l0 2.5l-2.4375 0zm0 6.296875l0 -2.5l2.4375 0l0 2.5l-2.4375 0zm7.4901123 1.578125q-1.25 0 -2.015625 -0.46875q-0.75 -0.484375 -1.09375 -1.375q-0.34375 -0.890625 -0.34375 -2.09375l0 -3.25q0 -1.25 0.34375 -2.125q0.34375 -0.875 1.109375 -1.34375q0.765625 -0.46875 2.0 -0.46875q1.15625 0 1.890625 0.375q0.734375 0.359375 1.0625 1.09375q0.34375 0.734375 0.34375 1.859375l0 0.890625l-2.390625 0l0 -0.953125q0 -0.5625 -0.078125 -0.890625q-0.078125 -0.328125 -0.296875 -0.453125q-0.203125 -0.140625 -0.53125 -0.140625q-0.34375 0 -0.546875 0.171875q-0.203125 0.171875 -0.296875 0.5625q-0.078125 0.390625 -0.078125 1.09375l0 3.953125q0 1.046875 0.21875 1.40625q0.234375 0.359375 0.71875 0.359375q0.375 0 0.5625 -0.15625q0.203125 -0.171875 0.265625 -0.5q0.0625 -0.328125 0.0625 -0.796875l0 -1.15625l2.390625 0l0 1.03125q0 1.078125 -0.34375 1.84375q-0.34375 0.765625 -1.078125 1.15625q-0.734375 0.375 -1.875 0.375zm5.130615 -0.171875l0 -15.109375l2.515625 0l0 15.109375l-2.515625 0zm6.326416 0.171875q-0.734375 0 -1.265625 -0.375q-0.53125 -0.390625 -0.8125 -0.96875q-0.28125 -0.59375 -0.28125 -1.234375q0 -1.015625 0.375 -1.703125q0.375 -0.6875 1.0 -1.15625q0.625 -0.46875 1.390625 -0.8125q0.78125 -0.34375 1.609375 -0.625l0 -0.921875q0 -0.46875 -0.078125 -0.78125q-0.0625 -0.328125 -0.25 -0.484375q-0.1875 -0.171875 -0.53125 -0.171875q-0.34375 0 -0.546875 0.15625q-0.1875 0.140625 -0.28125 0.40625q-0.078125 0.265625 -0.078125 0.625l-0.03125 0.65625l-2.421875 -0.09375q0.078125 -1.859375 0.921875 -2.75q0.859375 -0.890625 2.640625 -0.890625q1.625 0 2.359375 0.90625q0.75 0.890625 0.75 2.421875l0 4.96875q0 0.609375 0.03125 1.09375q0.03125 0.484375 0.078125 0.875q0.046875 0.390625 0.078125 0.6875l-2.296875 0q-0.046875 -0.375 -0.125 -0.84375q-0.078125 -0.484375 -0.109375 -0.703125q-0.1875 0.65625 -0.71875 1.1875q-0.515625 0.53125 -1.40625 0.53125zm0.921875 -1.890625q0.25 0 0.453125 -0.109375q0.203125 -0.125 0.375 -0.296875q0.171875 -0.171875 0.265625 -0.296875l0 -3.0q-0.4375 0.234375 -0.796875 0.484375q-0.359375 0.234375 -0.625 0.53125q-0.265625 0.28125 -0.421875 0.625q-0.140625 0.328125 -0.140625 0.78125q0 0.59375 0.234375 0.9375q0.234375 0.34375 0.65625 0.34375zm8.3341675 1.890625q-1.375 0 -2.25 -0.71875q-0.875 -0.734375 -1.25 -2.140625l1.890625 -0.734375q0.21875 0.890625 0.59375 1.359375q0.375 0.453125 0.96875 0.453125q0.453125 0 0.671875 -0.21875q0.21875 -0.21875 0.21875 -0.609375q0 -0.453125 -0.265625 -0.8125q-0.265625 -0.375 -0.921875 -0.90625l-1.3125 -1.109375q-0.703125 -0.609375 -1.140625 -1.25q-0.4375 -0.640625 -0.4375 -1.625q0 -0.875 0.390625 -1.5q0.40625 -0.625 1.109375 -0.96875q0.703125 -0.34375 1.5625 -0.34375q1.34375 0 2.140625 0.78125q0.796875 0.765625 1.046875 2.015625l-1.71875 0.71875q-0.09375 -0.453125 -0.28125 -0.828125q-0.171875 -0.390625 -0.453125 -0.625q-0.265625 -0.25 -0.65625 -0.25q-0.390625 0 -0.625 0.25q-0.234375 0.234375 -0.234375 0.609375q0 0.3125 0.265625 0.65625q0.265625 0.328125 0.78125 0.765625l1.3125 1.1875q0.4375 0.375 0.828125 0.8125q0.390625 0.421875 0.640625 0.953125q0.265625 0.53125 0.265625 1.21875q0 0.9375 -0.421875 1.578125q-0.40625 0.625 -1.125 0.953125q-0.71875 0.328125 -1.59375 0.328125zm7.4625244 0q-1.375 0 -2.25 -0.71875q-0.875 -0.734375 -1.25 -2.140625l1.890625 -0.734375q0.21875 0.890625 0.59375 1.359375q0.375 0.453125 0.96875 0.453125q0.453125 0 0.671875 -0.21875q0.21875 -0.21875 0.21875 -0.609375q0 -0.453125 -0.265625 -0.8125q-0.265625 -0.375 -0.921875 -0.90625l-1.3125 -1.109375q-0.703125 -0.609375 -1.140625 -1.25q-0.4375 -0.640625 -0.4375 -1.625q0 -0.875 0.390625 -1.5q0.40625 -0.625 1.109375 -0.96875q0.703125 -0.34375 1.5625 -0.34375q1.34375 0 2.140625 0.78125q0.796875 0.765625 1.046875 2.015625l-1.71875 0.71875q-0.09375 -0.453125 -0.28125 -0.828125q-0.171875 -0.390625 -0.453125 -0.625q-0.265625 -0.25 -0.65625 -0.25q-0.390625 0 -0.625 0.25q-0.234375 0.234375 -0.234375 0.609375q0 0.3125 0.265625 0.65625q0.265625 0.328125 0.78125 0.765625l1.3125 1.1875q0.4375 0.375 0.828125 0.8125q0.390625 0.421875 0.640625 0.953125q0.265625 0.53125 0.265625 1.21875q0 0.9375 -0.421875 1.578125q-0.40625 0.625 -1.125 0.953125q-0.71875 0.328125 -1.59375 0.328125zm4.6031494 -0.171875l0 -10.78125l2.53125 0l0 10.78125l-2.53125 0zm0 -12.5l0 -2.109375l2.53125 0l0 2.109375l-2.53125 0zm7.798645 12.671875q-1.25 0 -2.015625 -0.46875q-0.75 -0.484375 -1.09375 -1.375q-0.34375 -0.890625 -0.34375 -2.09375l0 -3.25q0 -1.25 0.34375 -2.125q0.34375 -0.875 1.109375 -1.34375q0.765625 -0.46875 2.0 -0.46875q1.15625 0 1.890625 0.375q0.734375 0.359375 1.0625 1.09375q0.34375 0.734375 0.34375 1.859375l0 0.890625l-2.390625 0l0 -0.953125q0 -0.5625 -0.078125 -0.890625q-0.078125 -0.328125 -0.296875 -0.453125q-0.203125 -0.140625 -0.53125 -0.140625q-0.34375 0 -0.546875 0.171875q-0.203125 0.171875 -0.296875 0.5625q-0.078125 0.390625 -0.078125 1.09375l0 3.953125q0 1.046875 0.21875 1.40625q0.234375 0.359375 0.71875 0.359375q0.375 0 0.5625 -0.15625q0.203125 -0.171875 0.265625 -0.5q0.0625 -0.328125 0.0625 -0.796875l0 -1.15625l2.390625 0l0 1.03125q0 1.078125 -0.34375 1.84375q-0.34375 0.765625 -1.078125 1.15625q-0.734375 0.375 -1.875 0.375z" fill-rule="nonzero"/><path fill="#d9d2e9" d="m515.4354 312.13144l0 0c0 -5.456299 4.423218 -9.879456 9.879517 -9.879456l157.12292 0c2.6202393 0 5.1331177 1.040863 6.98584 2.8936157c1.8527832 1.8527527 2.8936157 4.365631 2.8936157 6.98584l0 39.516663c0 5.4562683 -4.4231567 9.879456 -9.879456 9.879456l-157.12292 0c-5.456299 0 -9.879517 -4.4231873 -9.879517 -9.879456z" fill-rule="evenodd"/><path stroke="#434343" stroke-width="2.0" stroke-linejoin="round" stroke-linecap="butt" d="m515.4354 312.13144l0 0c0 -5.456299 4.423218 -9.879456 9.879517 -9.879456l157.12292 0c2.6202393 0 5.1331177 1.040863 6.98584 2.8936157c1.8527832 1.8527527 2.8936157 4.365631 2.8936157 6.98584l0 39.516663c0 5.4562683 -4.4231567 9.879456 -9.879456 9.879456l-157.12292 0c-5.456299 0 -9.879517 -4.4231873 -9.879517 -9.879456z" fill-rule="evenodd"/><path fill="#434343" d="m535.73724 331.10663l0 -2.5l2.4375 0l0 2.5l-2.4375 0zm0 6.296875l0 -2.5l2.4375 0l0 2.5l-2.4375 0zm8.880737 1.578125q-0.59375 0 -1.125 -0.28125q-0.515625 -0.28125 -0.953125 -0.6875l0 0.796875l-2.546875 0l0 -15.109375l2.546875 0l0 5.140625q0.46875 -0.4375 1.015625 -0.703125q0.546875 -0.28125 1.1875 -0.28125q0.71875 0 1.1875 0.34375q0.46875 0.328125 0.71875 0.890625q0.265625 0.546875 0.359375 1.171875q0.109375 0.625 0.109375 1.203125l0 3.65625q0 1.0625 -0.25 1.9375q-0.25 0.875 -0.796875 1.40625q-0.546875 0.515625 -1.453125 0.515625zm-0.96875 -1.78125q0.421875 0 0.609375 -0.265625q0.203125 -0.265625 0.265625 -0.71875q0.0625 -0.46875 0.0625 -1.0l0 -3.875q0 -0.5 -0.078125 -0.890625q-0.078125 -0.40625 -0.28125 -0.640625q-0.1875 -0.25 -0.59375 -0.25q-0.296875 0 -0.578125 0.140625q-0.28125 0.140625 -0.515625 0.296875l0 6.8125q0.234375 0.171875 0.515625 0.28125q0.296875 0.109375 0.59375 0.109375zm5.399048 1.609375l0 -15.109375l2.515625 0l0 15.109375l-2.515625 0zm6.263855 0.171875q-0.625 0 -1.046875 -0.328125q-0.40625 -0.328125 -0.59375 -0.875q-0.1875 -0.546875 -0.1875 -1.171875l0 -8.578125l2.546875 0l0 8.109375q0 0.484375 0.15625 0.765625q0.15625 0.265625 0.578125 0.265625q0.28125 0 0.5625 -0.140625q0.296875 -0.15625 0.578125 -0.359375l0 -8.640625l2.53125 0l0 10.78125l-2.53125 0l0 -1.03125q-0.546875 0.53125 -1.203125 0.875q-0.640625 0.328125 -1.390625 0.328125zm10.355652 0q-1.21875 0 -1.984375 -0.453125q-0.75 -0.46875 -1.125 -1.34375q-0.359375 -0.890625 -0.359375 -2.140625l0 -3.25q0 -1.28125 0.359375 -2.15625q0.375 -0.890625 1.140625 -1.328125q0.78125 -0.453125 1.96875 -0.453125q1.28125 0 2.0 0.484375q0.71875 0.484375 1.03125 1.40625q0.3125 0.921875 0.3125 2.25l0 1.53125l-4.296875 0l0 2.125q0 0.53125 0.09375 0.875q0.109375 0.328125 0.328125 0.484375q0.234375 0.140625 0.546875 0.140625q0.34375 0 0.546875 -0.15625q0.203125 -0.171875 0.296875 -0.46875q0.09375 -0.3125 0.09375 -0.78125l0 -0.890625l2.375 0l0 0.71875q0 1.65625 -0.828125 2.53125q-0.828125 0.875 -2.5 0.875zm-0.953125 -6.703125l1.90625 0l0 -1.03125q0 -0.546875 -0.09375 -0.890625q-0.09375 -0.359375 -0.296875 -0.515625q-0.203125 -0.15625 -0.578125 -0.15625q-0.34375 0 -0.546875 0.171875q-0.203125 0.171875 -0.296875 0.5625q-0.09375 0.390625 -0.09375 1.109375l0 0.75zm9.148804 6.65625q-1.03125 0 -1.625 -0.328125q-0.578125 -0.34375 -0.828125 -0.96875q-0.234375 -0.640625 -0.234375 -1.515625l0 -6.421875l-1.09375 0l0 -1.671875l1.09375 0l0 -3.234375l2.546875 0l0 3.234375l1.640625 0l0 1.671875l-1.640625 0l0 6.203125q0 0.5625 0.234375 0.796875q0.25 0.21875 0.734375 0.21875q0.21875 0 0.40625 -0.015625q0.203125 -0.015625 0.390625 -0.03125l0 1.9375q-0.328125 0.03125 -0.75 0.078125q-0.40625 0.046875 -0.875 0.046875zm6.281555 0.046875q-1.171875 0 -1.9375 -0.4375q-0.765625 -0.4375 -1.15625 -1.28125q-0.375 -0.84375 -0.375 -2.03125l0 -3.625q0 -1.1875 0.375 -2.03125q0.390625 -0.84375 1.15625 -1.28125q0.765625 -0.4375 1.9375 -0.4375q1.171875 0 1.9375 0.4375q0.78125 0.4375 1.15625 1.28125q0.390625 0.84375 0.390625 2.03125l0 3.625q0 1.1875 -0.390625 2.03125q-0.375 0.84375 -1.15625 1.28125q-0.765625 0.4375 -1.9375 0.4375zm0.015625 -1.75q0.4375 0 0.640625 -0.25q0.203125 -0.25 0.25 -0.65625q0.0625 -0.421875 0.0625 -0.9375l0 -3.953125q0 -0.5 -0.0625 -0.90625q-0.046875 -0.40625 -0.25 -0.65625q-0.203125 -0.265625 -0.640625 -0.265625q-0.421875 0 -0.625 0.265625q-0.203125 0.25 -0.28125 0.65625q-0.0625 0.40625 -0.0625 0.90625l0 3.953125q0 0.515625 0.0625 0.9375q0.078125 0.40625 0.28125 0.65625q0.203125 0.25 0.625 0.25zm8.473022 1.75q-1.171875 0 -1.9375 -0.4375q-0.765625 -0.4375 -1.15625 -1.28125q-0.375 -0.84375 -0.375 -2.03125l0 -3.625q0 -1.1875 0.375 -2.03125q0.390625 -0.84375 1.15625 -1.28125q0.765625 -0.4375 1.9375 -0.4375q1.171875 0 1.9375 0.4375q0.78125 0.4375 1.15625 1.28125q0.390625 0.84375 0.390625 2.03125l0 3.625q0 1.1875 -0.390625 2.03125q-0.375 0.84375 -1.15625 1.28125q-0.765625 0.4375 -1.9375 0.4375zm0.015625 -1.75q0.4375 0 0.640625 -0.25q0.203125 -0.25 0.25 -0.65625q0.0625 -0.421875 0.0625 -0.9375l0 -3.953125q0 -0.5 -0.0625 -0.90625q-0.046875 -0.40625 -0.25 -0.65625q-0.203125 -0.265625 -0.640625 -0.265625q-0.421875 0 -0.625 0.265625q-0.203125 0.25 -0.28125 0.65625q-0.0625 0.40625 -0.0625 0.90625l0 3.953125q0 0.515625 0.0625 0.9375q0.078125 0.40625 0.28125 0.65625q0.203125 0.25 0.625 0.25zm8.347961 1.703125q-1.03125 0 -1.625 -0.328125q-0.578125 -0.34375 -0.828125 -0.96875q-0.234375 -0.640625 -0.234375 -1.515625l0 -6.421875l-1.09375 0l0 -1.671875l1.09375 0l0 -3.234375l2.546875 0l0 3.234375l1.640625 0l0 1.671875l-1.640625 0l0 6.203125q0 0.5625 0.234375 0.796875q0.25 0.21875 0.734375 0.21875q0.21875 0 0.40625 -0.015625q0.203125 -0.015625 0.390625 -0.03125l0 1.9375q-0.328125 0.03125 -0.75 0.078125q-0.40625 0.046875 -0.875 0.046875zm3.0471802 -0.125l0 -15.109375l2.546875 0l0 5.359375q0.5625 -0.5625 1.21875 -0.875q0.65625 -0.328125 1.453125 -0.328125q0.640625 0 1.03125 0.328125q0.40625 0.328125 0.578125 0.875q0.1875 0.53125 0.1875 1.171875l0 8.578125l-2.53125 0l0 -8.078125q0 -0.484375 -0.15625 -0.734375q-0.140625 -0.265625 -0.578125 -0.265625q-0.25 0 -0.578125 0.15625q-0.328125 0.140625 -0.625 0.375l0 8.546875l-2.546875 0zm9.105225 -7.703125l0 -2.5l2.4375 0l0 2.5l-2.4375 0zm0 6.296875l0 -2.5l2.4375 0l0 2.5l-2.4375 0zm7.4900513 1.578125q-1.25 0 -2.015625 -0.46875q-0.75 -0.484375 -1.09375 -1.375q-0.34375 -0.890625 -0.34375 -2.09375l0 -3.25q0 -1.25 0.34375 -2.125q0.34375 -0.875 1.109375 -1.34375q0.765625 -0.46875 2.0 -0.46875q1.15625 0 1.890625 0.375q0.734375 0.359375 1.0625 1.09375q0.34375 0.734375 0.34375 1.859375l0 0.890625l-2.390625 0l0 -0.953125q0 -0.5625 -0.078125 -0.890625q-0.078125 -0.328125 -0.296875 -0.453125q-0.203125 -0.140625 -0.53125 -0.140625q-0.34375 0 -0.546875 0.171875q-0.203125 0.171875 -0.296875 0.5625q-0.078125 0.390625 -0.078125 1.09375l0 3.953125q0 1.046875 0.21875 1.40625q0.234375 0.359375 0.71875 0.359375q0.375 0 0.5625 -0.15625q0.203125 -0.171875 0.265625 -0.5q0.0625 -0.328125 0.0625 -0.796875l0 -1.15625l2.390625 0l0 1.03125q0 1.078125 -0.34375 1.84375q-0.34375 0.765625 -1.078125 1.15625q-0.734375 0.375 -1.875 0.375zm8.187073 0q-1.171875 0 -1.9375 -0.4375q-0.765625 -0.4375 -1.15625 -1.28125q-0.375 -0.84375 -0.375 -2.03125l0 -3.625q0 -1.1875 0.375 -2.03125q0.390625 -0.84375 1.15625 -1.28125q0.765625 -0.4375 1.9375 -0.4375q1.171875 0 1.9375 0.4375q0.78125 0.4375 1.15625 1.28125q0.390625 0.84375 0.390625 2.03125l0 3.625q0 1.1875 -0.390625 2.03125q-0.375 0.84375 -1.15625 1.28125q-0.765625 0.4375 -1.9375 0.4375zm0.015625 -1.75q0.4375 0 0.640625 -0.25q0.203125 -0.25 0.25 -0.65625q0.0625 -0.421875 0.0625 -0.9375l0 -3.953125q0 -0.5 -0.0625 -0.90625q-0.046875 -0.40625 -0.25 -0.65625q-0.203125 -0.265625 -0.640625 -0.265625q-0.421875 0 -0.625 0.265625q-0.203125 0.25 -0.28125 0.65625q-0.0625 0.40625 -0.0625 0.90625l0 3.953125q0 0.515625 0.0625 0.9375q0.078125 0.40625 0.28125 0.65625q0.203125 0.25 0.625 0.25zm5.2073364 1.578125l0 -10.78125l2.453125 0l0 0.9375q0.546875 -0.609375 1.203125 -0.875q0.65625 -0.265625 1.328125 -0.265625q0.625 0 1.09375 0.3125q0.484375 0.3125 0.71875 1.015625q0.609375 -0.71875 1.296875 -1.015625q0.6875 -0.3125 1.421875 -0.3125q0.578125 0 1.015625 0.296875q0.453125 0.28125 0.71875 0.859375q0.265625 0.5625 0.265625 1.421875l0 8.40625l-2.421875 0l0 -8.1875q0 -0.625 -0.21875 -0.84375q-0.203125 -0.234375 -0.578125 -0.234375q-0.296875 0 -0.65625 0.171875q-0.359375 0.15625 -0.65625 0.453125q0 0.0625 0 0.109375q0 0.046875 0 0.125l0 8.40625l-2.40625 0l0 -8.1875q0 -0.625 -0.21875 -0.84375q-0.21875 -0.234375 -0.59375 -0.234375q-0.296875 0 -0.65625 0.171875q-0.34375 0.15625 -0.65625 0.453125l0 8.640625l-2.453125 0zm13.395203 0l0 -10.78125l2.453125 0l0 0.9375q0.546875 -0.609375 1.203125 -0.875q0.65625 -0.265625 1.328125 -0.265625q0.625 0 1.09375 0.3125q0.484375 0.3125 0.71875 1.015625q0.609375 -0.71875 1.296875 -1.015625q0.6875 -0.3125 1.421875 -0.3125q0.578125 0 1.015625 0.296875q0.453125 0.28125 0.71875 0.859375q0.265625 0.5625 0.265625 1.421875l0 8.40625l-2.421875 0l0 -8.1875q0 -0.625 -0.21875 -0.84375q-0.203125 -0.234375 -0.578125 -0.234375q-0.296875 0 -0.65625 0.171875q-0.359375 0.15625 -0.65625 0.453125q0 0.0625 0 0.109375q0 0.046875 0 0.125l0 8.40625l-2.40625 0l0 -8.1875q0 -0.625 -0.21875 -0.84375q-0.21875 -0.234375 -0.59375 -0.234375q-0.296875 0 -0.65625 0.171875q-0.34375 0.15625 -0.65625 0.453125l0 8.640625l-2.453125 0zm16.660828 0.171875q-1.171875 0 -1.9375 -0.4375q-0.765625 -0.4375 -1.15625 -1.28125q-0.375 -0.84375 -0.375 -2.03125l0 -3.625q0 -1.1875 0.375 -2.03125q0.390625 -0.84375 1.15625 -1.28125q0.765625 -0.4375 1.9375 -0.4375q1.171875 0 1.9375 0.4375q0.78125 0.4375 1.15625 1.28125q0.390625 0.84375 0.390625 2.03125l0 3.625q0 1.1875 -0.390625 2.03125q-0.375 0.84375 -1.15625 1.28125q-0.765625 0.4375 -1.9375 0.4375zm0.015625 -1.75q0.4375 0 0.640625 -0.25q0.203125 -0.25 0.25 -0.65625q0.0625 -0.421875 0.0625 -0.9375l0 -3.953125q0 -0.5 -0.0625 -0.90625q-0.046875 -0.40625 -0.25 -0.65625q-0.203125 -0.265625 -0.640625 -0.265625q-0.421875 0 -0.625 0.265625q-0.203125 0.25 -0.28125 0.65625q-0.0625 0.40625 -0.0625 0.90625l0 3.953125q0 0.515625 0.0625 0.9375q0.078125 0.40625 0.28125 0.65625q0.203125 0.25 0.625 0.25zm5.2073364 1.578125l0 -10.78125l2.53125 0l0 1.078125q0.578125 -0.5625 1.21875 -0.90625q0.65625 -0.34375 1.40625 -0.34375q0.671875 0 1.0625 0.328125q0.390625 0.328125 0.578125 0.875q0.1875 0.53125 0.1875 1.171875l0 8.578125l-2.546875 0l0 -8.078125q0 -0.484375 -0.15625 -0.734375q-0.140625 -0.265625 -0.5625 -0.265625q-0.265625 0 -0.578125 0.15625q-0.296875 0.140625 -0.609375 0.359375l0 8.5625l-2.53125 0z" fill-rule="nonzero"/><path fill="#d9d2e9" d="m515.4354 240.72461l0 0c0 -5.4562836 4.423218 -9.879471 9.879517 -9.879471l157.12292 0c2.6202393 0 5.1331177 1.0408783 6.98584 2.893631c1.8527832 1.852768 2.8936157 4.3656464 2.8936157 6.98584l0 39.516663c0 5.4562683 -4.4231567 9.879456 -9.879456 9.879456l-157.12292 0c-5.456299 0 -9.879517 -4.4231873 -9.879517 -9.879456z" fill-rule="evenodd"/><path stroke="#434343" stroke-width="2.0" stroke-linejoin="round" stroke-linecap="butt" d="m515.4354 240.72461l0 0c0 -5.4562836 4.423218 -9.879471 9.879517 -9.879471l157.12292 0c2.6202393 0 5.1331177 1.0408783 6.98584 2.893631c1.8527832 1.852768 2.8936157 4.3656464 2.8936157 6.98584l0 39.516663c0 5.4562683 -4.4231567 9.879456 -9.879456 9.879456l-157.12292 0c-5.456299 0 -9.879517 -4.4231873 -9.879517 -9.879456z" fill-rule="evenodd"/><path fill="#434343" d="m555.1677 259.69983l0 -2.5l2.4375 0l0 2.5l-2.4375 0zm0 6.296875l0 -2.5l2.4375 0l0 2.5l-2.4375 0zm8.880737 1.578125q-0.59375 0 -1.125 -0.28125q-0.515625 -0.28125 -0.953125 -0.6875l0 0.796875l-2.546875 0l0 -15.10939l2.546875 0l0 5.1406403q0.46875 -0.4375 1.015625 -0.703125q0.546875 -0.28125 1.1875 -0.28125q0.71875 0 1.1875 0.34375q0.46875 0.328125 0.71875 0.890625q0.265625 0.546875 0.359375 1.171875q0.109375 0.625 0.109375 1.203125l0 3.65625q0 1.0625 -0.25 1.9375q-0.25 0.875 -0.796875 1.40625q-0.546875 0.515625 -1.453125 0.515625zm-0.96875 -1.78125q0.421875 0 0.609375 -0.265625q0.203125 -0.265625 0.265625 -0.71875q0.0625 -0.46875 0.0625 -1.0l0 -3.875q0 -0.5 -0.078125 -0.890625q-0.078125 -0.40625 -0.28125 -0.640625q-0.1875 -0.25 -0.59375 -0.25q-0.296875 0 -0.578125 0.140625q-0.28125 0.140625 -0.515625 0.296875l0 6.8125q0.234375 0.171875 0.515625 0.28125q0.296875 0.109375 0.59375 0.109375zm5.399048 1.609375l0 -15.10939l2.515625 0l0 15.10939l-2.515625 0zm6.263855 0.171875q-0.625 0 -1.046875 -0.328125q-0.40625 -0.328125 -0.59375 -0.875q-0.1875 -0.546875 -0.1875 -1.171875l0 -8.578125l2.546875 0l0 8.109375q0 0.484375 0.15625 0.765625q0.15625 0.265625 0.578125 0.265625q0.28125 0 0.5625 -0.140625q0.296875 -0.15625 0.578125 -0.359375l0 -8.640625l2.53125 0l0 10.78125l-2.53125 0l0 -1.03125q-0.546875 0.53125 -1.203125 0.875q-0.640625 0.328125 -1.390625 0.328125zm10.355652 0q-1.21875 0 -1.984375 -0.453125q-0.75 -0.46875 -1.125 -1.34375q-0.359375 -0.890625 -0.359375 -2.140625l0 -3.25q0 -1.28125 0.359375 -2.15625q0.375 -0.890625 1.140625 -1.328125q0.78125 -0.453125 1.96875 -0.453125q1.28125 0 2.0 0.484375q0.71875 0.484375 1.03125 1.40625q0.3125 0.921875 0.3125 2.25l0 1.53125l-4.296875 0l0 2.125q0 0.53125 0.09375 0.875q0.109375 0.328125 0.328125 0.484375q0.234375 0.140625 0.546875 0.140625q0.34375 0 0.546875 -0.15625q0.203125 -0.171875 0.296875 -0.46875q0.09375 -0.3125 0.09375 -0.78125l0 -0.890625l2.375 0l0 0.71875q0 1.65625 -0.828125 2.53125q-0.828125 0.875 -2.5 0.875zm-0.953125 -6.703125l1.90625 0l0 -1.03125q0 -0.546875 -0.09375 -0.890625q-0.09375 -0.359375 -0.296875 -0.515625q-0.203125 -0.15625 -0.578125 -0.15625q-0.34375 0 -0.546875 0.171875q-0.203125 0.171875 -0.296875 0.5625q-0.09375 0.390625 -0.09375 1.109375l0 0.75zm9.148804 6.65625q-1.03125 0 -1.625 -0.328125q-0.578125 -0.34375 -0.828125 -0.96875q-0.234375 -0.640625 -0.234375 -1.515625l0 -6.421875l-1.09375 0l0 -1.671875l1.09375 0l0 -3.2343903l2.546875 0l0 3.2343903l1.640625 0l0 1.671875l-1.640625 0l0 6.203125q0 0.5625 0.234375 0.796875q0.25 0.21875 0.734375 0.21875q0.21875 0 0.40625 -0.015625q0.203125 -0.015625 0.390625 -0.03125l0 1.9375q-0.328125 0.03125 -0.75 0.078125q-0.40625 0.046875 -0.875 0.046875zm6.281555 0.046875q-1.171875 0 -1.9375 -0.4375q-0.765625 -0.4375 -1.15625 -1.28125q-0.375 -0.84375 -0.375 -2.03125l0 -3.625q0 -1.1875 0.375 -2.03125q0.390625 -0.84375 1.15625 -1.28125q0.765625 -0.4375 1.9375 -0.4375q1.171875 0 1.9375 0.4375q0.78125 0.4375 1.15625 1.28125q0.390625 0.84375 0.390625 2.03125l0 3.625q0 1.1875 -0.390625 2.03125q-0.375 0.84375 -1.15625 1.28125q-0.765625 0.4375 -1.9375 0.4375zm0.015625 -1.75q0.4375 0 0.640625 -0.25q0.203125 -0.25 0.25 -0.65625q0.0625 -0.421875 0.0625 -0.9375l0 -3.953125q0 -0.5 -0.0625 -0.90625q-0.046875 -0.40625 -0.25 -0.65625q-0.203125 -0.265625 -0.640625 -0.265625q-0.421875 0 -0.625 0.265625q-0.203125 0.25 -0.28125 0.65625q-0.0625 0.40625 -0.0625 0.90625l0 3.953125q0 0.515625 0.0625 0.9375q0.078125 0.40625 0.28125 0.65625q0.203125 0.25 0.625 0.25zm8.473022 1.75q-1.171875 0 -1.9375 -0.4375q-0.765625 -0.4375 -1.15625 -1.28125q-0.375 -0.84375 -0.375 -2.03125l0 -3.625q0 -1.1875 0.375 -2.03125q0.390625 -0.84375 1.15625 -1.28125q0.765625 -0.4375 1.9375 -0.4375q1.171875 0 1.9375 0.4375q0.78125 0.4375 1.15625 1.28125q0.390625 0.84375 0.390625 2.03125l0 3.625q0 1.1875 -0.390625 2.03125q-0.375 0.84375 -1.15625 1.28125q-0.765625 0.4375 -1.9375 0.4375zm0.015625 -1.75q0.4375 0 0.640625 -0.25q0.203125 -0.25 0.25 -0.65625q0.0625 -0.421875 0.0625 -0.9375l0 -3.953125q0 -0.5 -0.0625 -0.90625q-0.046875 -0.40625 -0.25 -0.65625q-0.203125 -0.265625 -0.640625 -0.265625q-0.421875 0 -0.625 0.265625q-0.203125 0.25 -0.28125 0.65625q-0.0625 0.40625 -0.0625 0.90625l0 3.953125q0 0.515625 0.0625 0.9375q0.078125 0.40625 0.28125 0.65625q0.203125 0.25 0.625 0.25zm8.347961 1.703125q-1.03125 0 -1.625 -0.328125q-0.578125 -0.34375 -0.828125 -0.96875q-0.234375 -0.640625 -0.234375 -1.515625l0 -6.421875l-1.09375 0l0 -1.671875l1.09375 0l0 -3.2343903l2.546875 0l0 3.2343903l1.640625 0l0 1.671875l-1.640625 0l0 6.203125q0 0.5625 0.234375 0.796875q0.25 0.21875 0.734375 0.21875q0.21875 0 0.40625 -0.015625q0.203125 -0.015625 0.390625 -0.03125l0 1.9375q-0.328125 0.03125 -0.75 0.078125q-0.40625 0.046875 -0.875 0.046875zm3.0471802 -0.125l0 -15.10939l2.546875 0l0 5.3593903q0.5625 -0.5625 1.21875 -0.875q0.65625 -0.328125 1.453125 -0.328125q0.640625 0 1.03125 0.328125q0.40625 0.328125 0.578125 0.875q0.1875 0.53125 0.1875 1.171875l0 8.578125l-2.53125 0l0 -8.078125q0 -0.484375 -0.15625 -0.734375q-0.140625 -0.265625 -0.578125 -0.265625q-0.25 0 -0.578125 0.15625q-0.328125 0.140625 -0.625 0.375l0 8.546875l-2.546875 0zm9.105225 -7.703125l0 -2.5l2.4375 0l0 2.5l-2.4375 0zm0 6.296875l0 -2.5l2.4375 0l0 2.5l-2.4375 0zm8.880676 1.578125q-0.59375 0 -1.125 -0.28125q-0.515625 -0.28125 -0.953125 -0.6875l0 0.796875l-2.546875 0l0 -15.10939l2.546875 0l0 5.1406403q0.46875 -0.4375 1.015625 -0.703125q0.546875 -0.28125 1.1875 -0.28125q0.71875 0 1.1875 0.34375q0.46875 0.328125 0.71875 0.890625q0.265625 0.546875 0.359375 1.171875q0.109375 0.625 0.109375 1.203125l0 3.65625q0 1.0625 -0.25 1.9375q-0.25 0.875 -0.796875 1.40625q-0.546875 0.515625 -1.453125 0.515625zm-0.96875 -1.78125q0.421875 0 0.609375 -0.265625q0.203125 -0.265625 0.265625 -0.71875q0.0625 -0.46875 0.0625 -1.0l0 -3.875q0 -0.5 -0.078125 -0.890625q-0.078125 -0.40625 -0.28125 -0.640625q-0.1875 -0.25 -0.59375 -0.25q-0.296875 0 -0.578125 0.140625q-0.28125 0.140625 -0.515625 0.296875l0 6.8125q0.234375 0.171875 0.515625 0.28125q0.296875 0.109375 0.59375 0.109375zm5.399048 1.609375l0 -15.10939l2.515625 0l0 15.10939l-2.515625 0zm7.795105 0.171875q-1.21875 0 -1.984375 -0.453125q-0.75 -0.46875 -1.125 -1.34375q-0.359375 -0.890625 -0.359375 -2.140625l0 -3.25q0 -1.28125 0.359375 -2.15625q0.375 -0.890625 1.140625 -1.328125q0.78125 -0.453125 1.96875 -0.453125q1.28125 0 2.0 0.484375q0.71875 0.484375 1.03125 1.40625q0.3125 0.921875 0.3125 2.25l0 1.53125l-4.296875 0l0 2.125q0 0.53125 0.09375 0.875q0.109375 0.328125 0.328125 0.484375q0.234375 0.140625 0.546875 0.140625q0.34375 0 0.546875 -0.15625q0.203125 -0.171875 0.296875 -0.46875q0.09375 -0.3125 0.09375 -0.78125l0 -0.890625l2.375 0l0 0.71875q0 1.65625 -0.828125 2.53125q-0.828125 0.875 -2.5 0.875zm-0.953125 -6.703125l1.90625 0l0 -1.03125q0 -0.546875 -0.09375 -0.890625q-0.09375 -0.359375 -0.296875 -0.515625q-0.203125 -0.15625 -0.578125 -0.15625q-0.34375 0 -0.546875 0.171875q-0.203125 0.171875 -0.296875 0.5625q-0.09375 0.390625 -0.09375 1.109375l0 0.75z" fill-rule="nonzero"/><path fill="#c9daf8" d="m741.4915 241.31778l0 0c0 -5.4562683 4.4231567 -9.879456 9.879456 -9.879456l157.12299 0c2.6201782 0 5.1330566 1.040863 6.98584 2.893631c1.8527222 1.8527527 2.8936157 4.365631 2.8936157 6.9858246l0 39.516663c0 5.4562683 -4.423218 9.879456 -9.879456 9.879456l-157.12299 0c-5.456299 0 -9.879456 -4.4231873 -9.879456 -9.879456z" fill-rule="evenodd"/><path stroke="#434343" stroke-width="2.0" stroke-linejoin="round" stroke-linecap="butt" d="m741.4915 241.31778l0 0c0 -5.4562683 4.4231567 -9.879456 9.879456 -9.879456l157.12299 0c2.6201782 0 5.1330566 1.040863 6.98584 2.893631c1.8527222 1.8527527 2.8936157 4.365631 2.8936157 6.9858246l0 39.516663c0 5.4562683 -4.423218 9.879456 -9.879456 9.879456l-157.12299 0c-5.456299 0 -9.879456 -4.4231873 -9.879456 -9.879456z" fill-rule="evenodd"/><path fill="#434343" d="m799.7681 260.293l0 -2.5l2.4375 0l0 2.5l-2.4375 0zm0 6.296875l0 -2.5l2.4375 0l0 2.5l-2.4375 0zm4.2401123 1.40625l0 -10.78125l2.53125 0l0 1.078125q0.578125 -0.5625 1.21875 -0.90625q0.65625 -0.34375 1.40625 -0.34375q0.671875 0 1.0625 0.328125q0.390625 0.328125 0.578125 0.875q0.1875 0.53125 0.1875 1.171875l0 8.578125l-2.546875 0l0 -8.078125q0 -0.484375 -0.15625 -0.734375q-0.140625 -0.265625 -0.5625 -0.265625q-0.265625 0 -0.578125 0.15625q-0.296875 0.140625 -0.609375 0.359375l0 8.5625l-2.53125 0zm12.108643 0.171875q-1.21875 0 -1.984375 -0.453125q-0.75 -0.46875 -1.125 -1.34375q-0.359375 -0.890625 -0.359375 -2.140625l0 -3.25q0 -1.28125 0.359375 -2.15625q0.375 -0.890625 1.140625 -1.328125q0.78125 -0.453125 1.96875 -0.453125q1.28125 0 2.0 0.484375q0.71875 0.484375 1.03125 1.40625q0.3125 0.921875 0.3125 2.25l0 1.53125l-4.296875 0l0 2.125q0 0.53125 0.09375 0.875q0.109375 0.328125 0.328125 0.484375q0.234375 0.140625 0.546875 0.140625q0.34375 0 0.546875 -0.15625q0.203125 -0.171875 0.296875 -0.46875q0.09375 -0.3125 0.09375 -0.78125l0 -0.890625l2.375 0l0 0.71875q0 1.65625 -0.828125 2.53125q-0.828125 0.875 -2.5 0.875zm-0.953125 -6.703125l1.90625 0l0 -1.03125q0 -0.546875 -0.09375 -0.890625q-0.09375 -0.359375 -0.296875 -0.515625q-0.203125 -0.15625 -0.578125 -0.15625q-0.34375 0 -0.546875 0.171875q-0.203125 0.171875 -0.296875 0.5625q-0.09375 0.390625 -0.09375 1.109375l0 0.75zm9.148865 6.65625q-1.03125 0 -1.625 -0.328125q-0.578125 -0.34375 -0.828125 -0.96875q-0.234375 -0.640625 -0.234375 -1.515625l0 -6.421875l-1.09375 0l0 -1.671875l1.09375 0l0 -3.2343903l2.546875 0l0 3.2343903l1.640625 0l0 1.671875l-1.640625 0l0 6.203125q0 0.5625 0.234375 0.796875q0.25 0.21875 0.734375 0.21875q0.21875 0 0.40625 -0.015625q0.203125 -0.015625 0.390625 -0.03125l0 1.9375q-0.328125 0.03125 -0.75 0.078125q-0.40625 0.046875 -0.875 0.046875zm4.156555 -0.125l-1.65625 -10.78125l2.109375 0l0.9375 7.0l1.125 -7.0l1.890625 0l1.0625 7.0625l1.015625 -7.0625l2.0 0l-1.6875 10.78125l-2.15625 0l-1.1875 -6.8125l-1.25 6.8125l-2.203125 0zm13.188171 0.171875q-1.171875 0 -1.9375 -0.4375q-0.765625 -0.4375 -1.15625 -1.28125q-0.375 -0.84375 -0.375 -2.03125l0 -3.625q0 -1.1875 0.375 -2.03125q0.390625 -0.84375 1.15625 -1.28125q0.765625 -0.4375 1.9375 -0.4375q1.171875 0 1.9375 0.4375q0.78125 0.4375 1.15625 1.28125q0.390625 0.84375 0.390625 2.03125l0 3.625q0 1.1875 -0.390625 2.03125q-0.375 0.84375 -1.15625 1.28125q-0.765625 0.4375 -1.9375 0.4375zm0.015625 -1.75q0.4375 0 0.640625 -0.25q0.203125 -0.25 0.25 -0.65625q0.0625 -0.421875 0.0625 -0.9375l0 -3.953125q0 -0.5 -0.0625 -0.90625q-0.046875 -0.40625 -0.25 -0.65625q-0.203125 -0.265625 -0.640625 -0.265625q-0.421875 0 -0.625 0.265625q-0.203125 0.25 -0.28125 0.65625q-0.0625 0.40625 -0.0625 0.90625l0 3.953125q0 0.515625 0.0625 0.9375q0.078125 0.40625 0.28125 0.65625q0.203125 0.25 0.625 0.25zm5.2698364 1.578125l0 -10.78125l2.53125 0l0 1.65625q0.5625 -0.953125 1.125 -1.359375q0.5625 -0.421875 1.21875 -0.421875q0.125 0 0.203125 0.015625q0.078125 0 0.203125 0.015625l0 2.625q-0.234375 -0.09375 -0.5 -0.15625q-0.265625 -0.0625 -0.546875 -0.0625q-0.515625 0 -0.921875 0.25q-0.40625 0.234375 -0.78125 0.796875l0 7.421875l-2.53125 0zm6.5387573 0l0 -15.10939l2.484375 0l0 8.67189l2.5625 -4.34375l2.734375 0l-2.546875 4.328125l2.515625 6.453125l-2.671875 0l-1.796875 -5.3125l-0.796875 1.1875l0 4.125l-2.484375 0z" fill-rule="nonzero"/><path fill="#000000" fill-opacity="0.0" d="m348.9409 359.60104c0 52.409454 90.299225 104.81891 180.59842 104.81891" fill-rule="evenodd"/><path stroke="#434343" stroke-width="2.0" stroke-linejoin="round" stroke-linecap="butt" d="m348.94092 359.60104c0 26.204742 22.574799 52.409454 56.43698 72.06299c16.931122 9.826782 36.684082 18.015747 57.84793 23.748047c10.58194 2.86615 21.516632 5.118103 32.627686 6.653534c5.555481 0.7677307 11.15509 1.3562927 16.776794 1.7529602c1.4053955 0.09915161 2.8121338 0.18634033 4.2200317 0.26132202l0.6928711 0.03540039" fill-rule="evenodd"/><path fill="#434343" stroke="#434343" stroke-width="2.0" stroke-linecap="butt" d="m517.45935 467.41766l9.1571045 -3.0719604l-8.98938 -3.532837z" fill-rule="evenodd"/><path fill="#000000" fill-opacity="0.0" d="m437.38184 261.0761c23.036621 0 34.553528 50.834656 46.07321 101.66928c11.519684 50.834656 23.042145 101.66931 46.08426 101.66931" fill-rule="evenodd"/><path stroke="#434343" stroke-width="2.0" stroke-linejoin="round" stroke-linecap="butt" d="m437.38184 261.0761c23.03659 0 34.553528 50.834656 46.07321 101.66928c5.759857 25.417328 11.520386 50.834656 18.721222 69.897644c3.6004333 9.531494 7.5608826 17.474426 12.061401 23.034454c1.1251221 1.3900146 2.2840576 2.631073 3.4794922 3.710846c0.14941406 0.13494873 0.29943848 0.26739502 0.4500122 0.39730835l0.22393799 0.18862915" fill-rule="evenodd"/><path fill="#434343" stroke="#434343" stroke-width="2.0" stroke-linecap="butt" d="m517.1687 463.04327l9.654358 0.28952026l-7.2095337 -6.42749z" fill-rule="evenodd"/><path fill="#000000" fill-opacity="0.0" d="m387.64297 464.40683c35.47104 0 53.20584 0.01574707 70.94205 0.03149414c17.736237 0.01574707 35.473877 0.03149414 70.947754 0.03149414" fill-rule="evenodd"/><path stroke="#434343" stroke-width="2.0" stroke-linejoin="round" stroke-linecap="butt" d="m387.643 464.40683c35.47101 0 53.20578 0.01574707 70.94202 0.03149414c8.868103 0.007873535 17.736572 0.01574707 28.822266 0.021636963c5.542816 0.002960205 11.639954 0.005432129 18.568512 0.0071411133l11.556976 0.0013122559" fill-rule="evenodd"/><path fill="#434343" stroke="#434343" stroke-width="2.0" stroke-linecap="butt" d="m517.5324 467.7719l9.076538 -3.3024292l-9.075806 -3.3045044z" fill-rule="evenodd"/><path fill="#000000" fill-opacity="0.0" d="m829.93243 290.7139c0 86.8504 -61.763733 173.7008 -123.52753 173.7008" fill-rule="evenodd"/><path stroke="#434343" stroke-width="2.0" stroke-linejoin="round" stroke-linecap="butt" d="m829.9325 290.7139c0 43.4252 -15.440918 86.8504 -38.602356 119.41931c-11.580688 16.284454 -25.091553 29.854828 -39.567444 39.354065c-7.237915 4.749634 -14.717102 8.481476 -22.317017 11.02594c-1.8999023 0.6361084 -3.807373 1.1980286 -5.72052 1.683075c-0.956604 0.24249268 -1.9146118 0.4657898 -2.8737793 0.66952515c-0.47955322 0.10189819 -0.95947266 0.19891357 -1.4396362 0.2909546c-0.24005127 0.046020508 -0.48016357 0.09082031 -0.72039795 0.13439941l-0.33374023 0.058776855" fill-rule="evenodd"/><path fill="#434343" stroke="#434343" stroke-width="2.0" stroke-linecap="butt" d="m718.0645 460.0595l-8.747314 4.095764l9.333496 2.4851074z" fill-rule="evenodd"/><path fill="#fff2cc" d="m182.43651 55.837467l0 0c0 -5.456276 4.4231873 -9.879463 9.879456 -9.879463l157.12297 0c2.6201782 0 5.1330566 1.0408707 6.98584 2.8936272c1.8527527 1.8527603 2.8936157 4.3656387 2.8936157 6.985836l0 39.516666c0 5.456276 -4.4231873 9.879463 -9.879456 9.879463l-157.12297 0c-5.4562683 0 -9.879456 -4.4231873 -9.879456 -9.879463z" fill-rule="evenodd"/><path stroke="#434343" stroke-width="2.0" stroke-linejoin="round" stroke-linecap="butt" d="m182.43651 55.837467l0 0c0 -5.456276 4.4231873 -9.879463 9.879456 -9.879463l157.12297 0c2.6201782 0 5.1330566 1.0408707 6.98584 2.8936272c1.8527527 1.8527603 2.8936157 4.3656387 2.8936157 6.985836l0 39.516666c0 5.456276 -4.4231873 9.879463 -9.879456 9.879463l-157.12297 0c-5.4562683 0 -9.879456 -4.4231873 -9.879456 -9.879463z" fill-rule="evenodd"/><path fill="#434343" d="m256.89743 74.812675l0 -2.5l2.4375 0l0 2.5l-2.4375 0zm0 6.296875l0 -2.5l2.4375 0l0 2.5l-2.4375 0zm6.036957 1.578125q-0.734375 0 -1.265625 -0.375q-0.53125 -0.390625 -0.8125 -0.96875q-0.28125 -0.59375 -0.28125 -1.234375q0 -1.015625 0.375 -1.703125q0.375 -0.6875 1.0 -1.15625q0.625 -0.46875 1.390625 -0.8125q0.78125 -0.34375 1.609375 -0.625l0 -0.921875q0 -0.46875 -0.078125 -0.78125q-0.0625 -0.328125 -0.25 -0.484375q-0.1875 -0.171875 -0.53125 -0.171875q-0.34375 0 -0.546875 0.15625q-0.1875 0.140625 -0.28125 0.40625q-0.078125 0.265625 -0.078125 0.625l-0.03125 0.65625l-2.421875 -0.09375q0.078125 -1.859375 0.921875 -2.75q0.859375 -0.890625 2.640625 -0.890625q1.625 0 2.359375 0.90625q0.75 0.890625 0.75 2.421875l0 4.96875q0 0.609375 0.03125 1.09375q0.03125 0.484375 0.078125 0.875q0.046875 0.390625 0.078125 0.6875l-2.296875 0q-0.046875 -0.375 -0.125 -0.84375q-0.078125 -0.484375 -0.109375 -0.703125q-0.1875 0.65625 -0.71875 1.1875q-0.515625 0.53125 -1.40625 0.53125zm0.921875 -1.890625q0.25 0 0.453125 -0.109375q0.203125 -0.125 0.375 -0.296875q0.171875 -0.171875 0.265625 -0.296875l0 -3.0q-0.4375 0.234375 -0.796875 0.484375q-0.359375 0.234375 -0.625 0.53125q-0.265625 0.28125 -0.421875 0.625q-0.140625 0.328125 -0.140625 0.78125q0 0.59375 0.234375 0.9375q0.234375 0.34375 0.65625 0.34375zm5.3967285 5.265625l0 -14.328125l2.53125 0l0 0.8125q0.46875 -0.4375 1.03125 -0.703125q0.5625 -0.28125 1.171875 -0.28125q0.734375 0 1.203125 0.34375q0.46875 0.328125 0.71875 0.890625q0.265625 0.546875 0.359375 1.171875q0.109375 0.625 0.109375 1.203125l0 3.65625q0 1.0625 -0.25 1.9375q-0.25 0.875 -0.796875 1.40625q-0.546875 0.515625 -1.46875 0.515625q-0.578125 0 -1.09375 -0.28125q-0.515625 -0.28125 -0.984375 -0.71875l0 4.375l-2.53125 0zm3.65625 -5.15625q0.40625 0 0.59375 -0.265625q0.203125 -0.265625 0.265625 -0.71875q0.078125 -0.46875 0.078125 -1.0l0 -3.875q0 -0.5 -0.078125 -0.890625q-0.078125 -0.40625 -0.28125 -0.640625q-0.203125 -0.25 -0.59375 -0.25q-0.296875 0 -0.59375 0.140625q-0.28125 0.140625 -0.515625 0.328125l0 6.796875q0.25 0.171875 0.53125 0.28125q0.28125 0.09375 0.59375 0.09375zm5.224121 5.15625l0 -14.328125l2.53125 0l0 0.8125q0.46875 -0.4375 1.03125 -0.703125q0.5625 -0.28125 1.171875 -0.28125q0.734375 0 1.203125 0.34375q0.46875 0.328125 0.71875 0.890625q0.265625 0.546875 0.359375 1.171875q0.109375 0.625 0.109375 1.203125l0 3.65625q0 1.0625 -0.25 1.9375q-0.25 0.875 -0.796875 1.40625q-0.546875 0.515625 -1.46875 0.515625q-0.578125 0 -1.09375 -0.28125q-0.515625 -0.28125 -0.984375 -0.71875l0 4.375l-2.53125 0zm3.65625 -5.15625q0.40625 0 0.59375 -0.265625q0.203125 -0.265625 0.265625 -0.71875q0.078125 -0.46875 0.078125 -1.0l0 -3.875q0 -0.5 -0.078125 -0.890625q-0.078125 -0.40625 -0.28125 -0.640625q-0.203125 -0.25 -0.59375 -0.25q-0.296875 0 -0.59375 0.140625q-0.28125 0.140625 -0.515625 0.328125l0 6.796875q0.25 0.171875 0.53125 0.28125q0.28125 0.09375 0.59375 0.09375z" fill-rule="nonzero"/><path fill="#000000" fill-opacity="0.0" d="m270.87744 105.2336c0 82.383575 -21.272583 129.83727 -41.289413 164.76714c-20.016815 34.9299 -38.777863 57.335968 -41.289413 97.207c-2.5115356 39.871002 11.226425 97.20697 22.45285 97.20697" fill-rule="evenodd"/><path stroke="#434343" stroke-width="2.0" stroke-linejoin="round" stroke-linecap="butt" d="m270.87744 105.2336c0 82.383575 -21.272583 129.83727 -41.289413 164.76714c-20.016815 34.9299 -38.777863 57.335968 -41.289413 97.207c-1.2557526 19.935486 1.5508423 44.237244 6.0746765 63.555115c2.2619476 9.658936 4.953171 18.071869 7.7805786 24.07013c0.08836365 0.18743896 0.1768341 0.37252808 0.26545715 0.5552368l0.13102722 0.26623535" fill-rule="evenodd"/><path fill="#434343" stroke="#434343" stroke-width="2.0" stroke-linecap="butt" d="m200.13876 457.9121l8.614502 4.3681335l-3.7912903 -8.883484z" fill-rule="evenodd"/><path fill="#000000" fill-opacity="0.0" d="m270.87744 105.2336c0 31.551178 19.519684 47.326767 39.039368 63.102356c19.519684 15.775589 39.039368 31.551193 39.039368 63.10237" fill-rule="evenodd"/><path stroke="#434343" stroke-width="2.0" stroke-linejoin="round" stroke-linecap="butt" d="m270.87744 105.2336c0 31.551178 19.519684 47.326767 39.039368 63.102356c9.759857 7.887802 19.519684 15.775589 26.8396 25.635345c3.6599426 4.9298706 6.7098694 10.352722 8.844849 16.51506c0.53375244 1.5405884 1.0102844 3.1273804 1.4248962 4.7642517c0.20730591 0.8184509 0.3991394 1.6493988 0.5748596 2.4933624c0.08782959 0.4219818 0.1716919 0.8471985 0.25143433 1.2757263l0.083465576 0.46206665" fill-rule="evenodd"/><path fill="#434343" stroke="#434343" stroke-width="2.0" stroke-linecap="butt" d="m344.6444 219.76265l4.063202 8.762451l2.519806 -9.3242035z" fill-rule="evenodd"/><path fill="#000000" fill-opacity="0.0" d="m359.3184 75.5958c235.3071 0 470.61417 77.92126 470.61417 155.84253" fill-rule="evenodd"/><path stroke="#434343" stroke-width="2.0" stroke-linejoin="round" stroke-linecap="butt" d="m359.31842 75.5958c117.653534 0 235.30707 19.480316 323.54724 48.700783c44.120056 14.610245 80.88678 31.655518 106.623535 49.918304c12.868347 9.131409 22.979126 18.567184 29.872925 28.155151c3.4469604 4.793976 6.0894775 9.626022 7.8704224 14.477066c0.22259521 0.6063843 0.4317627 1.2130585 0.6272583 1.8200073c0.04888916 0.15171814 0.09698486 0.30348206 0.14422607 0.45524597l0.13745117 0.45037842" fill-rule="evenodd"/><path fill="#434343" stroke="#434343" stroke-width="2.0" stroke-linecap="butt" d="m824.87506 220.06581l4.6210938 8.481461l1.9118042 -9.46759z" fill-rule="evenodd"/><path fill="#000000" fill-opacity="0.0" d="m270.87744 105.2336c0 48.773056 -7.992035 76.06142 -16.38565 97.54613c-8.3936 21.484695 -17.188766 37.16574 -16.38565 63.58914c0.8031311 26.4234 11.204559 63.58914 22.409088 63.58914" fill-rule="evenodd"/><path stroke="#434343" stroke-width="2.0" stroke-linejoin="round" stroke-linecap="butt" d="m270.87744 105.2336c0 48.773056 -7.992035 76.06142 -16.38565 97.54611c-8.393616 21.48471 -17.188766 37.16577 -16.385635 63.589157c0.4015503 13.2117 3.2026978 29.108978 7.304016 41.70334c1.0253143 3.14859 2.1319122 6.0907593 3.3025665 8.73291c0.5853424 1.3210754 1.1867065 2.5671692 1.8019409 3.726532c0.15379333 0.28982544 0.30848694 0.57424927 0.46398926 0.8530884c0.07774353 0.13943481 0.15570068 0.2774353 0.23388672 0.41403198l0.19828796 0.34194946" fill-rule="evenodd"/><path fill="#434343" stroke="#434343" stroke-width="2.0" stroke-linecap="butt" d="m249.25882 324.64706l9.038116 3.40625l-4.734085 -8.418915z" fill-rule="evenodd"/><path fill="#000000" fill-opacity="0.0" d="m359.3184 75.5958c39.032288 0 58.548798 28.370079 78.064545 56.74015c19.515747 28.370087 39.03073 56.740158 78.06146 56.740158" fill-rule="evenodd"/><path stroke="#434343" stroke-width="2.0" stroke-linejoin="round" stroke-linecap="butt" d="m359.31842 75.5958c39.032257 0 58.548798 28.370079 78.064545 56.74015c9.757874 14.185043 19.515533 28.370087 31.712585 39.008865c6.0985413 5.3193817 12.806885 9.752213 20.430054 12.855194c3.8115845 1.5514832 7.8518677 2.7705078 12.158936 3.601654c0.5383911 0.10391235 1.0809631 0.20173645 1.6277466 0.293396l0.17004395 0.027450562" fill-rule="evenodd"/><path fill="#434343" stroke="#434343" stroke-width="2.0" stroke-linecap="butt" d="m503.21982 191.41553l9.310028 -2.571762l-8.785004 -4.014267z" fill-rule="evenodd"/><path fill="#000000" fill-opacity="0.0" d="m359.3184 75.5958c39.032288 0 58.548798 46.220474 78.064545 92.44094c19.515747 46.220474 39.03073 92.44095 78.06146 92.44095" fill-rule="evenodd"/><path stroke="#434343" stroke-width="2.0" stroke-linejoin="round" stroke-linecap="butt" d="m359.31842 75.5958c39.032257 0 58.548798 46.220474 78.064545 92.44094c9.757874 23.110245 19.515533 46.220474 31.712585 63.553146c6.0985413 8.666351 12.806885 15.88829 20.430054 20.943665c3.8115845 2.5276794 7.8518677 4.5137177 12.158936 5.867813c0.5383911 0.169281 1.0809631 0.32867432 1.6277466 0.47799683l0.23086548 0.06188965" fill-rule="evenodd"/><path fill="#434343" stroke="#434343" stroke-width="2.0" stroke-linecap="butt" d="m503.12018 262.21753l9.4244995 -2.1141968l-8.578552 -4.4383545z" fill-rule="evenodd"/><path fill="#000000" fill-opacity="0.0" d="m692.3173 189.07611c12.5 0 24.992126 35.70079 25.0 71.40158c0.007873535 35.700775 -12.468506 71.40158 -24.937012 71.40158" fill-rule="evenodd"/><path stroke="#434343" stroke-width="2.0" stroke-linejoin="round" stroke-linecap="butt" d="m692.3173 189.07611c12.5 0 24.992126 35.70079 25.0 71.40158c0.003967285 17.850403 -3.1131592 35.700775 -7.789856 49.088593c-1.1691895 3.3469238 -2.435791 6.414978 -3.7755127 9.134369c-0.66986084 1.3596802 -1.3580322 2.6322327 -2.0613403 3.808899c-0.35162354 0.5883484 -0.7070923 1.1526794 -1.06604 1.6919861c-0.08972168 0.13482666 -0.1796875 0.26809692 -0.26983643 0.39978027l-0.21002197 0.30245972" fill-rule="evenodd"/><path fill="#434343" stroke="#434343" stroke-width="2.0" stroke-linecap="butt" d="m700.2244 322.21576l-5.465027 7.963928l9.305542 -2.5878906z" fill-rule="evenodd"/><path fill="#000000" fill-opacity="0.0" d="m692.3173 260.48294c12.5 0 24.992126 17.850403 25.0 35.700775c0.007873535 17.850403 -12.468506 35.700806 -24.937012 35.700806" fill-rule="evenodd"/><path stroke="#434343" stroke-width="2.0" stroke-linejoin="round" stroke-linecap="butt" d="m692.3173 260.48294c12.5 0 24.992126 17.850403 25.0 35.700775c0.003967285 8.925201 -3.1131592 17.850403 -7.789856 24.544312c-1.1691895 1.6734619 -2.435791 3.207489 -3.7755127 4.5671997c-0.66986084 0.6798401 -1.3580322 1.3161011 -2.0613403 1.904419l-0.19543457 0.16143799" fill-rule="evenodd"/><path fill="#434343" stroke="#434343" stroke-width="2.0" stroke-linecap="butt" d="m702.2499 324.3013l-7.161438 6.481079l9.6519165 -0.36151123z" fill-rule="evenodd"/><path fill="#000000" fill-opacity="0.0" d="m603.8764 361.52756c0 18.310394 3.5275269 27.467224 7.0551147 36.620758c3.5275269 9.153564 7.0551147 18.303802 7.0551147 36.607605" fill-rule="evenodd"/><path stroke="#434343" stroke-width="2.0" stroke-linejoin="round" stroke-linecap="butt" d="m603.8764 361.52756c0 18.310364 3.5275269 27.467224 7.0551147 36.62079c1.763794 4.5767517 3.5275269 9.15271 4.850403 14.872406c0.66137695 2.8598633 1.2125854 6.005707 1.5983887 9.580505l0.01763916 0.1690979" fill-rule="evenodd"/><path fill="#434343" stroke="#434343" stroke-width="2.0" stroke-linecap="butt" d="m614.09845 422.9324l3.744751 8.903229l2.854248 -9.227325z" fill-rule="evenodd"/><path fill="#d0e0e3" d="m41.879383 197.83746l0 0c0 -5.4562683 4.4231873 -9.879456 9.879463 -9.879456l157.12296 0c2.6201935 0 5.133087 1.040863 6.98584 2.893631c1.8527527 1.8527527 2.893631 4.365631 2.893631 6.9858246l0 39.516663c0 5.4562836 -4.4231873 9.879471 -9.879471 9.879471l-157.12296 0c-5.456276 0 -9.879463 -4.4231873 -9.879463 -9.879471z" fill-rule="evenodd"/><path stroke="#434343" stroke-width="2.0" stroke-linejoin="round" stroke-linecap="butt" d="m41.879383 197.83746l0 0c0 -5.4562683 4.4231873 -9.879456 9.879463 -9.879456l157.12296 0c2.6201935 0 5.133087 1.040863 6.98584 2.893631c1.8527527 1.8527527 2.893631 4.365631 2.893631 6.9858246l0 39.516663c0 5.4562836 -4.4231873 9.879471 -9.879471 9.879471l-157.12296 0c-5.456276 0 -9.879463 -4.4231873 -9.879463 -9.879471z" fill-rule="evenodd"/><path fill="#434343" d="m113.27134 216.81268l0 -2.5l2.4375 0l0 2.5l-2.4375 0zm0 6.296875l0 -2.5l2.4375 0l0 2.5l-2.4375 0zm6.036972 1.578125q-0.734375 0 -1.265625 -0.375q-0.53125 -0.390625 -0.8125 -0.96875q-0.28125 -0.59375 -0.28125 -1.234375q0 -1.015625 0.375 -1.703125q0.375 -0.6875 1.0 -1.15625q0.625 -0.46875 1.390625 -0.8125q0.78125 -0.34375 1.609375 -0.625l0 -0.921875q0 -0.46875 -0.078125 -0.78125q-0.0625 -0.328125 -0.25 -0.484375q-0.1875 -0.171875 -0.53125 -0.171875q-0.34375 0 -0.546875 0.15625q-0.1875 0.140625 -0.28125 0.40625q-0.078125 0.265625 -0.078125 0.625l-0.03125 0.65625l-2.421875 -0.09375q0.078125 -1.859375 0.921875 -2.75q0.859375 -0.890625 2.640625 -0.890625q1.625 0 2.359375 0.90625q0.75 0.890625 0.75 2.421875l0 4.96875q0 0.609375 0.03125 1.09375q0.03125 0.484375 0.078125 0.875q0.046875 0.390625 0.078125 0.6875l-2.296875 0q-0.046875 -0.375 -0.125 -0.84375q-0.078125 -0.484375 -0.109375 -0.703125q-0.1875 0.65625 -0.71875 1.1875q-0.515625 0.53125 -1.40625 0.53125zm0.921875 -1.890625q0.25 0 0.453125 -0.109375q0.203125 -0.125 0.375 -0.296875q0.171875 -0.171875 0.265625 -0.296875l0 -3.0q-0.4375 0.234375 -0.796875 0.484375q-0.359375 0.234375 -0.625 0.53125q-0.265625 0.28125 -0.421875 0.625q-0.140625 0.328125 -0.140625 0.78125q0 0.59375 0.234375 0.9375q0.234375 0.34375 0.65625 0.34375zm7.1310883 1.890625q-0.625 0 -1.046875 -0.328125q-0.40625 -0.328125 -0.59375 -0.875q-0.1875 -0.546875 -0.1875 -1.171875l0 -8.578125l2.5468674 0l0 8.109375q0 0.484375 0.15625 0.765625q0.15625 0.265625 0.578125 0.265625q0.28125 0 0.5625 -0.140625q0.296875 -0.15625 0.578125 -0.359375l0 -8.640625l2.53125 0l0 10.78125l-2.53125 0l0 -1.03125q-0.546875 0.53125 -1.203125 0.875q-0.640625 0.328125 -1.3906174 0.328125zm10.230644 -0.046875q-1.03125 0 -1.625 -0.328125q-0.578125 -0.34375 -0.828125 -0.96875q-0.234375 -0.640625 -0.234375 -1.515625l0 -6.421875l-1.09375 0l0 -1.671875l1.09375 0l0 -3.234375l2.546875 0l0 3.234375l1.640625 0l0 1.671875l-1.640625 0l0 6.203125q0 0.5625 0.234375 0.796875q0.25 0.21875 0.734375 0.21875q0.21875 0 0.40625 -0.015625q0.203125 -0.015625 0.390625 -0.03125l0 1.9375q-0.328125 0.03125 -0.75 0.078125q-0.40625 0.046875 -0.875 0.046875zm3.0471954 -0.125l0 -15.109375l2.546875 0l0 5.359375q0.5625 -0.5625 1.21875 -0.875q0.65625 -0.328125 1.453125 -0.328125q0.640625 0 1.03125 0.328125q0.40625 0.328125 0.578125 0.875q0.1875 0.53125 0.1875 1.171875l0 8.578125l-2.53125 0l0 -8.078125q0 -0.484375 -0.15625 -0.734375q-0.140625 -0.265625 -0.578125 -0.265625q-0.25 0 -0.578125 0.15625q-0.328125 0.140625 -0.625 0.375l0 8.546875l-2.546875 0z" fill-rule="nonzero"/><path fill="#000000" fill-opacity="0.0" d="m270.87744 105.2336c0 20.6809 -35.141724 31.019287 -70.28346 41.3618c-35.141724 10.342529 -70.28346 20.689178 -70.28346 41.378357" fill-rule="evenodd"/><path stroke="#434343" stroke-width="2.0" stroke-linejoin="round" stroke-linecap="butt" d="m270.87744 105.2336c0 20.680893 -35.14174 31.019287 -70.28346 41.3618c-17.570877 5.1712646 -35.141724 10.343552 -48.31987 16.809174c-6.589081 3.2328186 -12.079971 6.788971 -15.923599 10.829987c-0.48046875 0.50512695 -0.93518066 1.0178223 -1.3630829 1.5384216c-0.21394348 0.26029968 -0.42118835 0.52256775 -0.6215973 0.78685l-0.07044983 0.09487915" fill-rule="evenodd"/><path fill="#434343" stroke="#434343" stroke-width="2.0" stroke-linecap="butt" d="m131.17937 175.55772l0.10206604 9.658142l6.129944 -7.4641724z" fill-rule="evenodd"/><path fill="#000000" fill-opacity="0.0" d="m130.32033 247.2336c0 108.58269 40.220474 217.16536 80.44095 217.16536" fill-rule="evenodd"/><path stroke="#434343" stroke-width="2.0" stroke-linejoin="round" stroke-linecap="butt" d="m130.32033 247.2336c0 54.291336 10.055115 108.58269 25.137787 149.3012c7.541336 20.359253 16.33957 37.325287 25.76625 49.201508c4.713333 5.9381104 9.583786 10.60376 14.532791 13.784912c0.6186218 0.39764404 1.2384796 0.7720947 1.8593903 1.1229553c0.31047058 0.17538452 0.6212158 0.34487915 0.93218994 0.5084839c0.15550232 0.08175659 0.31105042 0.16207886 0.46665955 0.24084473l0.11387634 0.056549072" fill-rule="evenodd"/><path fill="#434343" stroke="#434343" stroke-width="2.0" stroke-linecap="butt" d="m198.31746 464.6522l9.609665 -0.9717407l-7.9860687 -5.4325867z" fill-rule="evenodd"/><path fill="#000000" fill-opacity="0.0" d="m130.32033 247.2336c0 41.37007 65.08661 82.74016 130.17323 82.74016" fill-rule="evenodd"/><path stroke="#434343" stroke-width="2.0" stroke-linejoin="round" stroke-linecap="butt" d="m130.32033 247.2336c0 20.685043 16.271652 41.37007 40.67914 56.883865c12.203735 7.7568665 26.441437 14.220947 41.696106 18.74582c7.62735 2.2624207 15.508926 4.040039 23.517624 5.2520447c4.004364 0.60601807 8.040497 1.0706177 12.092514 1.383728l0.19668579 0.014251709" fill-rule="evenodd"/><path fill="#434343" stroke="#434343" stroke-width="2.0" stroke-linecap="butt" d="m248.37564 332.81436l9.196259 -2.9527893l-8.942749 -3.649292z" fill-rule="evenodd"/></g></svg>